<?xml version="1.0" encoding="UTF-8"?>
<svg id="Layer_1" xmlns="http://www.w3.org/2000/svg" version="1.1" viewBox="0 0 8192 6969.6">
  <!-- Generator: Adobe Illustrator 30.4.0, SVG Export Plug-In . SVG Version: 2.1.4 Build 226)  -->
  <defs>
    <style>
      .st0 {
        fill: none;
        stroke: red;
        stroke-miterlimit: 1.62;
        stroke-width: 5.08px;
      }

      .st1, .st2 {
        fill: #fff;
      }

      .st3 {
        opacity: .15;
      }

      .st2 {
        isolation: isolate;
        opacity: .19;
      }

      .st4 {
        opacity: .45;
      }
    </style>
  </defs>
  <g id="Car">
    <g id="Generative_Object" class="st3">
      <path class="st1" d="M3374.16,4307.01l-703.47,5.67c-20.5.17-39.57,8.52-60.84,2.59-6.95-203.83-9.33-387.69-130.23-556.15-76.45-106.54-187.75-169.9-318.66-184.33-196.97-21.71-381.04,69.83-478.98,243.71-56.07,99.55-77.77,213.53-78.33,328.98l-.83,173.57-318.32-14.78c-147.64-6.85-290.64-10.91-437.54-25.24-27.08-2.64-36.24-22.88-36.63-47.28-1.13-70.89,92.23-24.53,108.38-101.24,11.96-56.8,18.92-112.27,20.26-172.57l-113.49-10.21c-53.9-4.85-37.51-123.86-16.62-144.54,21.96-21.74,58.52-18.75,85.24-32.07l52.18-156.25c-3.39-4.45-11.81-9.66-11.99-13.8-2.32-52.69,179.62-151.29,269.12-187.02l63.53-44.52c45.24-5.48,89.45-10.37,135.71-20.45l219.38-47.8c235.45-51.3,465.49-101.16,701.8-139.94l105.03,21.77c282.32-185.5,568.56-355.9,865.56-517.37,144.75-78.69,283.22-137.09,445.44-166.9,239.15-43.95,475.97-54.26,722.04-61.31,278.41-7.98,942.6-23.26,1139.31,77.44,226.09,115.73,431.94,255.23,644.26,393.7,40.51,26.42,75.45,58.75,119.96,76.36l162.17,17.86,244.73-262.96c21.95-23.59,50.33-42.57,83.18-44.37l219.66-12c11.69-.64,20.53,4.75,24.91,10.17,20.41,25.24-29.56,295.35-96.11,373.83,40.47,39.97,10.12,116,49.78,216.82,16.99,43.19,21.44,86.98,21.84,133.66l1.61,187.25,70.78,63.04c16.71,79.55,7.99,159.79-15.22,236.93l-25.14,83.53c44.33,38.64,65.56,51.37,47.08,105.44-6.51,19.05-27.61,18.21-47.5,22.27l-251.46,51.37-518.35,48.08c-2.34-301.95-129.26-562.45-442.49-604.33-245.88-34.31-463.64,111.36-530.82,350.12-28.58,101.59-35.76,207.76-31.78,320.15l-643.41,7.4-649.57,7.77-665.18,7.95h.02ZM4623.02,2486.86l340.63-.45c143.73-.19,283.2,7.38,423.94,29.78,49.48,7.88,97.67,18.57,143.04,40.24l59.22-24.99c-75.57-31.82-148.23-44.64-226.02-53.63-191.34-22.11-379.92-24.06-572.34-25.29l-72.76-.47c-245.62,6.16-486.83,7.2-731.08,32.77-154.46,16.17-301.67,38.72-452.38,90.96l63.2,22.02c118.88-38.28,242.23-59.17,367.8-73.22l153.27-17.15,113.53-6.38,160.98-7.92,228.96-6.27h0ZM5710.9,3129.01l218.01-2.77,654.24.7,219.09,8.43,119.66,8.04c10.26.69,19.89-23.47,12.18-26.03l-429.67-42.94-138.06-10.76-128.22-12.91c-44.85-14.01-78.92-48.9-117.83-77.4-173.77-127.26-339.21-256.03-523.37-366.72-96.01-57.71-193.71-81.47-299.47-90.79l-87.37-7.7-149.59-7.71-556.07.49-185.17,8.06-128.43,6.2c-194.8,16.58-390.96,32.23-580.35,94.9-135.55,44.85-253.34,112.78-377.36,184.64-189.71,109.9-366.55,227.24-544.94,354.12,29.68,7.64,50.9,5.43,75.03,14.28l166.56-125.59c174.11-131.28,356.42-243.2,552.3-338.99,132.53-64.8,261.46-100.56,406.24-119.6,273.73-36,544.72-45.69,823.28-43.51,157.37,1.23,305.79-.5,459.41,19.58,74.59,9.75,142.59,31.87,206.31,75.69,105.76,72.75,198.85,158.44,281.23,256.56,74.13,88.29,54.51,145.74,52.37,241.74h0ZM6234.1,3034.54c39.7-6.66,75.44-14.45,115.58-30.85l-179.65-119.21c-180.88-120.03-361.38-232.85-551.41-338.66-19.89-2.17-41.87,7.45-62.64,16.64l55.89,29.16,359.82,249.26,262.4,193.67h0ZM4434.76,2912.94l6.72-93.41,8.16-106.45,15.14-156c-9.06-4.34-34.78-5.41-41.43,3.34l-90.73,632.66,77.99-3.2,8.95-93.18,6.46-88.96,8.74-94.77h0ZM5121.15,3157.6l158.99-7.15,91.38-4.98,9.19-74.49,8.63-99.43,6.97-104.57,8.57-99.28,5.75-89.09c-91.77-76.97-192.07-105.16-307.62-113.43-208.36-14.91-412.98-17.58-621.28-10.85l-17.16,163.38-6.53,89.66-8.58,98.49-6.78,89.34-8.22,91.14-9.67,106.09,205.75-11.21,161.98-8.05,159.97-7.2,168.67-8.37h0ZM3273.83,3243.15l168.46-5.97,160.93-8.99,160.04-7.29,184.08-8.53,167.09-7.41,104.89-5.14,127.47-640.83c-168.3,6.17-327.75,20.63-489.77,44.09-112,16.22-213.78,44.11-318.76,90.75-195.45,89.66-376.14,197.79-550.05,325.04l106.65-18.33c33.87-5.82,62.27,11.62,65.62,46.4l11.02,114.31c3.14,32.6-22.62,47.11-49.79,53.28l-117.24,26.65,3.44,14.22,265.93-12.28h0ZM4318.37,3195.98l91.39-636.5c-19.2-4.8-33.4-2.87-46.77.01l-29.55,138.87-97.47,497.07c26.14,6.14,51.67,1.88,82.4.55h0ZM2573.1,3203.14c190.81-134.18,371.29-258.98,565.81-377.49,138.49-84.37,271.34-159,424.44-221.45-40.75-24.21-76.47-13.46-120.61,9.14-339.06,173.57-663.74,366.12-982.19,575.24,42.86,13.53,74.35,18.31,112.54,14.56h0ZM5434.51,3140.34l198.06-4.31,52.38-3.66c27.74-122.6,5.69-200.42-86.84-285.22l-172.14-157.77-14.37,153.4-5.94,97.98-9.93,105.66-6.72,94.82c15.68,5.12,29.68-.56,45.5-.91h0ZM6902.39,3033.23c52.41-1.06,96.93-26.33,131.84-61.29,27.49-86.42,44.98-171.44,52.64-266.9-91.75-2.55-175.04.81-262.04,18.31-108.03,95.29-202.92,197.1-298.67,317.47l376.23-7.58h0ZM6495.21,3060.95l20.62-39.66-137.55-7.26-101.06,27.67,217.99,19.25h0ZM3150.87,3184.79c3.38-77.97-.2-171.86-44.05-164.55-52.79,8.79-121.17,12.64-164.65,46.69-26.78,40.06-10.12,105.33-2,153.85,73.42,2.11,138.48-12.01,210.7-35.98h0ZM6743,3075.23l213.68,23.89c21.67-25.12,38.1-46.83,50.67-80.97-46.14,22.33-84.86,28.11-130.55,30.85l-256.18,15.36,122.38,10.88h0ZM2911.17,3194.67l-63.46,33.11c14.66-28.94,40.19-35.68,66.46-50.63l-1-101.89c-14.2,8.98-33.47,17.57-40.74,30.82-20.59,41.08-28.52,85.59-37.35,131.23,35.08-.29,61.63-4.25,92.4-11.21l-16.3-31.41h0ZM7059.24,3494.95c6.25-89.82-6.62-163.87-35.66-242.08-22.16-59.66-1.27-129.16-29.75-160.47-3.14,3.44-20.19,15.44-20.15,22.28.5,85.52,43.33,159.39,65.19,238.31l7.07,192.65c19.29-7.17,11.85-29.72,13.31-50.7h0ZM6990.94,3263.17l-35.9-143.42-84.13,182.88,120.04-39.47h0ZM2809.69,3263.7l32.69-137.92-119.5,97.27c-6.92,5.64-9.51,16.01-11.06,22.3-1.54,6.25,1.27,18.37,12.57,18.37l85.3-.02h0ZM6277.39,3219.39c26.74,10.65,30.66,49.95,33.78,70.43,19.24,4.07,34.44-1.84,52.51-1.92l452.66-2.1,46.81-4.31,56.3-124.71c-80.52-10.55-151.08-14.51-226.76-14.75l-920.38-2.96-68.22,5.89-36.53,179.09c25.49,1.64,47.91-1.05,72.6-2.44l120.17-6.76,145.67-8.87c21.18-1.29,47.13,4.69,67.42-9.33-5.6-25.07-1.84-46.14,12.69-62.23,29.44-32.6,143.2-34.17,191.27-15.02h0ZM5172.03,3376.37l122.43-15.98c36.78-4.8,74.15,1.16,109.01-16.18-38.29-.26-65.08-10.59-83.77-39.46-6.15-5.32-26.43-5.22-35.7-4.23-20.52,2.18-28.82-10.56-29.71-25.58-.53-9.02,17.8-21.89,26.89-20.12,34.45,6.72,38.58-14.02,57.18-28.8,49.14-39.07,120.25-32.23,168.02,3.25,17.6,13.07,50.77,2.58,70.82,5.56,20.05,2.98,25.02,17,24.31,31.46-.56,11.4-5.26,27.07-20.94,27.57l-62.12,1.99c-14.09,20.31-30.32,33.07-50.49,44.62l182.35-14.82,35.51-178.66-100.43,3.41-153.11,5.56-177.76,9.88-176.72,8.08-160.13,7.13-168.76,8.07-165.19,7.23-250.54,15.54-15.66,88.05-13.24,122.55c17.66,4.7,34.21.72,50.97.22l233.71-6.89,214.75-6.41,218.26-9.45,150.05-23.63v.03ZM2558.48,3424.1l123.82,7.34,71.7,4.74,17.46-63.32,30.25-89.24-74.31.3c-13.17.05-24.98-8.32-29.86-14.81-22.1-29.41,8.6-58.52,44.9-92.19-23.34-9.31-61.97-22.73-81.16-10.02-57.88,38.35-110.77,76.76-179.9,87.92l-424.36,68.55c-182.15,29.42-357.23,68.31-531.27,125.71-60.04,19.8-110.29,50.23-155.92,95.11,36.58,12.92,61.61-7.77,93.69-17.01,183.17-52.71,366.86-84.82,556.76-96.11l121.11-7.2,417.07.24h0ZM1475.54,3376.41c-9.97-5.13-20.28-4.55-24.55,7.59-8.48-.77-20.21-7.49-23.75,7.19-6.84.26-20.04-1.01-23.48,7.48l-25.02,5.99c-6.8-.74-22.3-3.32-28.8,1.09-38.75,26.28-85.6,14.6-126.32,26.61-99.08,29.23-185.75,85.21-261.78,153.12l104.92-1.09c43.72-42.33,90.75-78.31,146.24-103.82l165.75-75.9c7.64.83,16.62-3.31,25.02-5.99l23.48-7.48,23.75-7.19,24.55-7.59c221.17-59.55,447.29-97.52,683.45-131.09l264.36-37.57c-35.5-6.89-76.5-26.52-113.98-21.9l-423.26,83.71-257.29,57.89c-53.21,11.97-112.92,21.04-153.27,48.95h-.01ZM2764.19,3480.64l262.7-9.8,224.12-7.99,219.21-7.71,230.18-7.58,223.46-8.23,206.5-7.4,157.9-6.4,26.23-216.16-248.88,11.64-169.39,7.86-160,7.15-160.92,8.27-152.34,7.16-176.15,8.4-146.72,5.55-281.24,17.75c-27.63,67.39-46.51,127.63-54.67,197.5h0ZM1338.55,3555.46c54.26-71.06,126.99-105.92,207.05-132.95,163.78-55.26,329.17-89.41,500.47-117.13l471.06-76.21c-47.18-19.24-88.32-5.16-131.8.38-197.42,25.18-390.51,48.6-586.19,85.93-241.24,46.02-523.53,106.45-706.62,264.71l246.03-24.74h0ZM5490.48,3238.34c-30.48-34.95-125.42-32-154.19,9.52,54.44,2.87,97.94-3.3,154.19-9.52ZM6297.4,3291.41c1.11-28.3-10.76-65.75-35.75-65.8l-125.3-.23c-21.1-.04-39.84,13.46-46.77,26.81-7.92,15.29-8.47,34.09-1.36,48.47l59.09-2.63,150.08-6.63h0ZM2845.03,3264.86l145.79-11.24-.22-12.1-160.93,8.74c-4.56,11.23,2.49,17.03,15.36,14.6h0ZM5395.12,3281.59l129.43-1c4.33-10.06,2.31-22.51-2.33-30.84l-134.17,9.31-116.39,12.88c-3.62,2.64-3.56,6.66-3.03,8.27,40.19,7.6,83.53,1.72,126.49,1.39h0ZM5574.45,3249.99c-12.25-2.11-29.64-3.65-33.81,2.28-3.19,4.53-2.51,18.59-.33,23.72,2.84,6.69,14.94,6.16,24.11,5.77,14.46-.62,20.23-4.52,22.26-15.03.89-4.62,1.51-14.37-12.22-16.74h-.01ZM7032.14,3542.8l3.05-130.48c1.19-51.07-14.43-97.67-41.93-135.94-76.74,23.41-148.44,42.23-202.31,94.42-22.09,21.41-17.62,64.34-17.22,92.22l224.96,6.61c27.68.81,27.06,51.27,33.46,73.14h-.01ZM5503.2,3297.11l-170.44,4.28c49.22,46.62,125.79,46.72,170.44-4.28ZM6772.53,3363.47l88.82-65.51-346.42,1.08-199.99,4.38,2.64,62.83,454.95-2.78h0ZM6214.34,3369.9c28.75-9.01,56.39-.4,88.3-2.51,1.46-24.57.3-42.02-4.37-61.09l-55.8.99-154.29,8.56,4.55,55.79,121.62-1.73h0ZM5822.97,3385.06l185.13-6.07c20.57-9.56,42.49-2.79,68.36-3.97,2.98-21.68-.91-34.98-3.75-60.41l-137.7,6.36-129.88,10.46-140.18,9.24-20.22,54.65,178.22-10.24v-.02ZM5238.76,3423.55l97.08-6.95,106.19-8.73,96.53-6.83,74.66-6.54c18.77-1.64,32.56-33.91,22.52-53.16l-370.68,35.79-83.06,10.52-117.79,18.13-186.6,43.45,167.77-10.27,99.16-7.91,94.19-7.51h0ZM1237.28,3418.99c56.91-1.88,104.08-22.69,157.19-37.37l70.67-19.53-4.63-5.07-145.13,28.86c-31,6.16-59.75,4.38-78.1,33.12h0ZM5484.74,3668.1c-8.04,7.21-13.31,14.71-12.73,15.37,3.19,3.7,9.96,3.73,12.02,2.01,2.75-2.3,5.35-7.97.71-17.39,93.84-64.35,203.77-108.03,322.67-108.19,115.41-6.4,226.31,13.81,319.99,81.87,51.74-19.6,100.23-26.1,152.33-30.94l442.89-41.16c17.52-1.63,28.69-18.39,29.72-32.37l11.95-162.43-234.5,2.14-212.26,3.71c-7.45,41.85-40.01,55.98-79.9,56.3l-92.36.76c-37.94.31-53.41-24.7-68.08-45.84-44.47-6.01-106.6-.56-153.89,1.38l-167.63,6.86-116.99,6.85-153.93,261.06h0ZM6277.4,3380.53l-182.54,7.8c1.45,15.86,14.93,32.59,31.43,34.8,184.28,24.66,195.06-44.48,151.11-42.6h0ZM5219.14,3690.42l192.22,11.37c-26.47,13.66-53.44,4.52-80.14,3.72l-238.09-7.17c-77.58-2.33-156.84-1.67-234.78.16l-308.09,7.22-248.27,7.3c-5.04,10.01-5.44,27.75,2.63,36.68l311.26-4.83,348.88-7.95,341.31-6.08c35.29-.63,68.05-6.36,105.13,2.95,26.96-21.87,43.83-53.43,63.6-83.64,51-77.91,101.08-151.18,141.83-239.79l-119.58,5.88-114.06,8.24-97.33,6.85-98.71,8.21-89.74,6.92-282.84,19.62c33.9-32.76,70.7-25.88,102.46-44.65l-214.88,3.09-229.77,7.27-170.49,7.03-4.1,259.22c37.63,4.58,67.24.73,100.6-.06l301.47-7.13,519.47-.4v-.03ZM2132.66,3494.5l207.12-7.07,384.71-7.63c13.93-.28,21.69,1.7,25.7-9.44,8.88-24.69-50.25-28.49-118.11-30.43l-279.01-7.98c-25.3-.72-45.09-1.1-70.91-.15l-203.87,7.53-103.32,7.35c-176.52,12.55-348.39,46.65-518.89,96.4l165.48.12,265.81-31.08c36.28-4.24,72.44-8.33,106.38-10.15l138.95-7.47h-.02ZM2760.39,3653.22l6.51,76.51,51.92-3.49,357.49-4.49,418.97-8.62,402.19-6.79,286.15-7.71c-2.47-92.39-5.1-173.57,4.19-261.17l-253.85,8.92-223.9,9.43-222.62,7.12-231.18,8.24-214.8,7.41-215.32,8.24-163.33,5.91c-6.52,50.64-7.2,104.52-2.44,160.48h0ZM7012.33,3537.72c4.31-28.36-5.87-60.15-25.47-60.16l-213.2-.13-2.62,61.41,241.3-1.12h0ZM2127.31,3520.32c190.14,2.13,349.01,110.02,436.11,275.49,34.49-24.61,112.5,1.01,189.02-12.63,2.02-12.29,1.68-25.81-2.03-37.12l-191.14,25.46c.25-5.21,2.37-9.39,3.11-11.37l186.32-27.55-4.59-239.54-190.32,1.07-315.84,8.83-190.89,7.1-91.38,8.22-74.17,6.3-269.87,38.01c9.02,25.08-5.73,38.95-13.71,52.48l-83.36,141.32,144.72-3.35c89.36-143.87,251.32-231.79,423.48-232.95l19.86-6.81,24.7,7.05h0ZM2619.42,4107.7c.88,11.6,16.59,8.19,17.72,3.71,1.13-4.49,1.56-12.28.89-18.6-32.71-307.85-211.38-559.02-532.07-561.91-169.84-1.53-330.98,75.11-427.25,217.21-3.3,4.87,15.7,13.39,23.05,3.42,114.93-155.81,300.06-224.32,490.87-193.1,266.36,43.57,406.5,282.28,426.79,549.28h0ZM6716.25,3619.67l229.82-7.67c35.84-1.2,67.48-6.08,109.69.48l-1.9-54.92-280.57-3.1c-14.3,23.18-33.94,31.56-60.85,34.13-190.03,18.16-382.99,18.6-569.32,70.7l407.77-29.08,165.37-10.54h0ZM1568.66,3637.2c-16.39,9.84-25,23.55-27.8,42.26-13.58,4.89-20.61,25.1-21.36,37.8-13.4,5.04-23.05,20.21-22.26,40.1,14.92-9.69,21.39-25.36,22.26-40.1,15.73-6.23,22.91-26.09,21.36-37.8,18.53-6.66,20.53-25.83,27.8-42.26,20.96-12.58,33.97-49.51,27.63-74.18-6.39-10.39-21.15,3.3-6.23,8.59l-21.41,65.59h.01ZM1351.14,3655.16l182.97.32c18.17-29.69,36.75-52.63,42.19-90.09l-265.92,11.94c10.63,36.26,6.34,65.73-12.47,101.15,18.83-9.96,29.16-23.37,53.23-23.33h0ZM6073.79,3647.89c13.6,7.2,28.07,12.98,39.85,1.97-50.89-37.48-104.69-56.45-163.14-67.86-252.64-49.32-498.52,62.12-601.76,302.8-26.3,61.3-41.03,123.73-50.31,194.27-.85,6.49,20.65,8,21.65-3.24,7.45-83.65,33.05-159.19,72.38-233.61,132.46-250.67,449.92-316.76,681.32-194.33h0ZM1258.7,3686.26c-4.09-45.96,1.77-73.81,26.4-102.29l-95.04,9.35c16.04,15.48,15.58,32.9,10.95,53.89l-13.18,59.77c23.21-6.21,49.36-5.14,70.87-20.73h0ZM1080.1,3752.68c20.72,14.24,39.58,4.87,39.4-2.84-1.23-54.74,19.33-109.37,48.31-153.27-29.61-4.94-49.99,5.22-73.76,30.9-.64-12.97-17.83-5.46-8.96,4.55,1.37-3.21-2.61,4.34.04,4.9,2.65.56,8.24-.92,18.21-5.53,11.54,40.12-2.56,85.41-23.24,121.28ZM933.58,3797.74c.17,1.36-9.62-.71-17.88,13.81,45.84,1.22,95.56-2.47,143.79-5.19l98.72-5.57,100.22-8.83,108.83-9.06c34.64-2.88,75.58,8.74,106.18-15.62-28.62-10.07-56.93,1.94-82.99,2.28l-403.84,5.28c-20.16.26-33.83,10.66-48.61,23.42-3.97-1.1-5.51-3.13-4.42-.51l43.51-42.62c37.47-53.04,67.16-107.17,121.82-151.57-16.08-11.14-31.31,2.3-43.54,17.45l-134.31,166.35c-4.08,4.46.24,11.46,12.51,10.4v-.02ZM1297.45,3595.78c-26.12,15.74-31.81,53.59-25.89,93.58,16.47-24.78,39.89-44.56,25.89-93.58ZM1037.52,3611.86c-35.41-7.87-49.72-2.7-72.77-2.36l-39.17,134.18,111.93-131.82h0ZM1133.87,3754.19c43.62-37.76,63.46-93.5,50-152.04-35.4,43.42-54.35,94-50,152.04ZM6733.1,3681.52l318.17-5.18,70.72-.95-59.3-51.99-266.3,2.49-141.33,8.13-110.26,7.36-306.57,30.06c-8.5.83-13.3,4.94-13.53,10.81-.17,4.37,5.3,11,13.22,11.89l178.5-3.55,316.67-9.07h0ZM1093.31,3644.35c-32.12,32.58-40.66,72.74-31.07,109.21,25.14-35.59,32.96-68.83,31.07-109.21ZM6202.46,3720.22c7.34-7.18,12.76-3.82,16.6.44,74.94,83.22,120.33,181.89,147.37,295.44l213.67-5.23,238.97-8.13,213.85-6.53,55.84-5.91,26.99-92.38c15.07-51.57,26.23-101.11,20.1-154.78l-160.99,1.41-261.75,8.22-253.26,7.44-167.57,3.27c-14.3-4.24-26.28-24.5-33.67-38.58l50.16-5.86,357.45-5.36,406.46-6.23,65.17-8.25c-7.51-13.59-13.53-11.9-23.34-11.8l-217.73,2.29-316.53,8.27-264.02,4.99c-38.26.72-76.19,11.07-109.84-.85-.84-5.71,2.09-21.18-3.93-23.24-8.28-2.84-22.65-1.95-27.75,3.89,13.23,10.74,21.95,15.91,31.68,19.36l-3.94,18.11-57.02-51.51c-12.1-10.93-26.12-11.43-35.3-1.03,99.07,62.84,157.12,151.76,196.84,255.09,13.05,33.93,11,76.49,45.15,103-17.68-106.35-63.56-203.11-130.41-284.11-6.82-8.26-11.97-16.65-19.27-21.44h.02ZM1168.55,3758.12l303.65-3.62,56.8-86.18-194.42,4.75-60.74,32.3-92.4,17.46c-7.2,10.94-17.97,22.52-12.88,35.29h0ZM1048.9,3759.71c-9.61-34.03-.69-52.46.19-82.76l-57.76,82.46c21.76,5.53,35.36,4.39,57.56.3h0ZM3131.05,3775.94l327.06-7.42,379.79-8.2,354.19-6.82c42.87-.83,89.22-3.54,91.59-8.03,3.34-6.34,2.31-23.52-1.81-31.24-4.25-7.97-55.76.05-81.71.47l-409.12,6.6-419.24,8.08-401.6,7.88-202.66,5.58c-.96,14.14-1.13,22.91,3.77,41.28l359.72-8.18ZM6558.64,3744.59l253.26-7.39,326.01-6.19.07-13.26-307.67,3.86-354.44,7.61-176.01,3.84c-6.21.14-14.52,7.83-14.49,16.2l273.26-4.68h0ZM5301.82,3802.21l-357.15,5.49-355.27,7.63-283.6,8,27.54,193.74,17.31,76.97,338.4-2.86,592.33-7.53c11.17-128.11,53.81-239.6,130.64-343.56l-252.15,4.54-363.86,8.18-346.62,7.67-144.04,3.76c.45,7.42,8.68,16.02,14.92,15.91l218.07-3.79,332.55-8.19,338.67-7.78,157.91-4.02c-4.63,34.04-29.37,45.28-65.63,45.84h0ZM1585.62,4087.32c10.54-108.85,36.35-215.38,96.06-309.41,3.19-5.03-5.07-12.71-9.55-11.53-5.05,1.33-9.92,5.34-13.95,12.01-57.07,92.41-80.73,196.97-85.09,304.33-10.81,7.64-12.09,30.36,2.18,34.93,7.64-2.05,9.61-22.69,10.35-30.32h0ZM3107.96,3807.65l342.24-7.9,379.76-8.42,338.98-5.48c39.54-12.93,78.94-2.77,120.22-6.23-.08-6.25-8.42-15.83-14.8-15.7l-253.46,5.04-355.24,6.83-387.52,8.35-315.96,6.38-175.52,5.54c-6.77.21-14.5,7.04-14.7,15.83l336-4.23h0ZM1471.13,3836.71l-54.85,98.54c-44.08,79.19-94.86,152.58-166.24,209.08-88.97,70.43-190.43,61.3-267.43,77.18-72.97,15.05-193.29-1.76-148.26,28.4,3.95,2.65,8.36,10.43,17.8,11.05l330.88,21.57,375.04,16.89-1.58-35.95-396.81.7c-18.93.03-38.46,1.59-49.61-13.96,149.1-57.49,290.44-103.15,445.28-131.23,6.34-120.92,24.81-241.66,92.7-347.21-111.81,3.65-216.03,21.36-320.74,28.1l-110.5,7.11-106.66,8.75-112,6.74c-46.4,2.79-101.33,12.65-94.82-7.09,1.22-3.69,8.09-12,3.78-22.92l-68.4,17.98c-12.34,3.24-24.19,10.64-21.5,25.69l75.35,1.38c5.57,16.76,12.23,55.03-7.13,67.49-19.27,11.89-47.4-.19-73.48,7.57,4.51,14.97,18.32,18.54,32.06,19.58l237.23,18.02c82.98,6.3,142.93,60.24,166.39,138,93.88-76.73,156.73-168.23,210.27-267.38,4.06-7.52,11.41-9.33,15.78-6.54,2.29,1.47,5.13,5.83,4.56,8.61-.51,2.49-3.36,7.06-7.13,13.84h.03ZM4753.39,3799.01l370.56-6.1,206.79-5.61c6.81-.18,14.4-6.83,14.78-15.59l-287.1,3.89-332.98,8.89-354.36,6.14-65.97,7.41-.03,11.21,85.36-1.61,362.97-8.62h-.01ZM2654.03,3858.98c-15.93.89-29.95-.61-40.55-10.35-7.02-6.45-17.43-23.72-8.44-32.91,54.26-.41,106.8,13.39,157.7-10.83-52.87-17.91-98.62-5.3-147.84-7.28-16.93-.68-32.57-4.9-47.04,8,50.67,93.35,75.16,193.61,83.66,306.11,47.01,6.35,91.26,5.42,146.43-.33l-37.9-258.33-106.01,5.91h0ZM2938.95,3837.11l362.54-5.86,403.17-8.46,331.89-6.8,237.77-5.25c6.87-.15,14.45-6.73,14.83-15.57l-287.2,4.08-364.04,8.56-363.39,6.84-339.86,8.83-162.93,3.72c.31,6.72,8.51,15.78,14.82,15.44,52.99-2.88,102.26,6.65,152.41-5.54h0ZM2815.03,4113.66l590.16-7.46,633.27-7.64,290.79-4.63-28.79-183.54-10.98-88.26-65.91,1.58-354.25,7.08-348.93,7.92-367.63,7.87-333.82,5.64-42.94,3.11,22.64,180.25,16.42,78.09h0ZM2740.85,3842.57c6.61-.19,13.88-8.05,15.01-15.3l-139.93,3.12c11.19,23.29,28.79,14.87,45.66,14.4l79.25-2.22ZM881.43,3891.16c6.45-10.33,4.62-29.14.38-37.35l-70.04-.07-.48,40.4c23.14,1.18,47.89,5.67,70.14-2.98ZM1128.59,4121.82c-75.15,1.74-133.88,23.66-200.53,66.97,34.01-52.07,92.02-64.89,151.11-75.21-11.83-47.78-10.76-93.77-8.85-142.23l-110.74-8.78c-5.97,65.13-8.06,130.15-27.74,192.11-12.99,40.92-55.01,47.53-94.51,59.03,48.9,9.55,97.98,1.99,150.66-4.65l82.11-10.36c118.08-14.9,216.86-78.64,277.23-183.33-78.03,71.76-99.64,103.68-218.74,106.43h.01ZM1225.03,4087c-21.41-66.21-72.94-110.91-140.43-116.47l7.3,130.95c43.88,1.79,85.97-2.63,133.12-14.47h.01ZM1362.99,4004.6c10.44-7.66,9.18-16.82,4.26-21.39l-12.08,12.19c-4.8,4.85,1.52,13.82,7.82,9.2h0ZM6387.04,4153.32l483.92-40.15,275.24-50.92c-14.08-23.43-34.3-42.39-56.5-55.97l-157.91,4.99-214.42,7.26-230.19,8.61-114.66,5.15,14.52,121.03h0ZM6347.09,4025.22l8.36,128.53c26.03,5.83,18.82-86.29-8.36-128.53ZM6394.48,4192.74l491.82-47.99,255.9-54.78c-20.79-19.3-46.15-8.19-67.04-3.22-118,28.05-231.17,44.69-352.04,53.78l-320.37,24.11c-12.88.97-14.88,4.89-17.99,10.87-3.19,6.12.14,18.18,9.74,17.24h0ZM3104.19,4294.26l614.02-8.2,672.92-7.89,641.09-7.38,279.68-3.69,4.53-165.32-385.43,1.13-539.38,7.32-360.23,5.73-336.87,2.5-617.23,8.73-452.41,7.46,4.39,163.02,474.93-3.4h0ZM1577.81,4252.47c6.72-47.32,8.29-88.25-1.11-131.73-16.78,44.34-17.27,94.08,1.11,131.73ZM1555.57,4248.32l-2.35-116.96c-141.85,26.49-269.37,65.3-397.17,117.23l399.52-.27ZM6363.27,4166.62c-10.13,4.15-8.44,17.37-6.32,22.76,1.68,4.28,7.65,8.87,17.72,5.47,5.27-1.78,4.47-12.61,3.35-17.9-.98-4.62-4.84-14.39-14.75-10.34h0ZM1581.22,4304.6v-39.98c-11.07,4.6-14.84,11.67-15.33,20.07-.49,8.38,4.05,15.61,15.33,19.91Z"/>
      <path class="st1" d="M2269.83,4561.09c-61.19,23.46-120.57,29.76-188.35,26.39-246.57-12.24-436.66-223-436.76-470.69-.09-211.7,138.67-391.44,333.57-448.34,201.71-58.89,417.6,22.56,526.94,204.47,153.09,254.66,40.04,582.57-235.41,688.17h0ZM2504.12,4325.49c86.02-168.6,60.41-372.41-69.54-514.08-116.88-127.42-295.47-173.63-457.63-122.5-143.85,45.34-249.92,160-290.78,288.56-50.04,157.45-15.25,314.33,85.65,434.07,99.56,118.14,245.12,176.61,401.62,154.97,136.04-18.81,262.73-107.81,330.69-241.01h-.01Z"/>
      <path class="st1" d="M5868.47,4587.23l-61.38.55c-192.38-8.73-355.48-143.21-413.14-315.65-63.69-190.5-5.27-396.34,149.26-520.98,157.05-126.68,373.61-134.06,541.05-27.17,161.53,103.11,245.13,300.59,202.59,494.93-44,201-209.51,354.29-418.37,368.32h-.01ZM6045.85,4515.33c218.99-124.03,294.59-394.8,178.33-611.3-120.85-225.06-401.13-303.73-620.41-170.9-236,142.96-287.61,463.37-111.16,675.11,135.52,162.62,364.04,214.26,553.25,107.1h0Z"/>
      <path class="st1" d="M5484.74,3668.1c4.64,9.41,2.04,15.09-.71,17.39-2.06,1.72-8.83,1.68-12.02-2.01-.58-.67,4.69-8.16,12.73-15.37h0Z"/>
      <path class="st1" d="M4148.85,3360.62c-23.34,39.71-66.54,51.09-105.03,49.91-38.51-1.18-74.93-16.32-98.16-52.33l-39.88.54c-11.81.16-17.96-12.27-17.36-20.81,2.2-30.9,44.91-7.56,77.85-44.79,38.49-43.49,141.01-43.26,174.31,5.94l81.44-.1c14.97-.02,24.92,11.28,26.46,24.11,1.8,14.95-9.52,28.87-26.26,30.48l-73.36,7.04h0ZM4121.91,3295.99c-51.03-36.74-113.04-29.22-154.89,14.13,53.46,3.19,111.99-1.12,154.89-14.13ZM4155.77,3342.99c6.39-16.52,6.25-21.81,4.7-25.36-2.78-6.35-12.93-4.42-19.21-3.96l-172.69,12.62c-23.96,1.75-46.26-4.35-63.53,14.58l250.74,2.12h-.01ZM4235.84,3325.23c-21.12-17.37-55.52-14.54-60.33-7.82-3.77,5.27-3.55,14-.37,18.52,5.52,7.85,44.45,9.86,60.69-10.71h0ZM4132.56,3359.1l-168.9.64c44.22,51.05,126.49,52,168.9-.64Z"/>
      <path class="st1" d="M2700.3,3580.53c-1.39,30.18-68.57,42.28-114.05,17.99-9.62-5.14-8.96-17.94-6.56-23.16,16.89-36.78,122.44-34.33,120.62,5.17h-.01ZM2689.87,3577.29c-36.21-25.33-76.4-19.81-101.09,5.03,32.36,23.41,79.55,26.92,101.09-5.03Z"/>
      <path class="st1" d="M2279.32,4439.25c-116.75,64.91-259.69,57.06-369.7-17.73-106.26-72.23-163.96-193.8-156.4-328.84,7.2-128.55,81.57-237.66,186.06-294,120.15-64.79,258.79-55.65,370.99,19.93,108.33,72.98,163.86,195.45,157.11,323.55-6.4,121.54-74.47,233.94-188.05,297.09h0ZM1897.38,3857.43c-17.81,7.1-38.58,18.98-42.33,39.5,21.97-6.06,27.24-27.77,42.33-39.5l36.15-14.42,70.97,148.95c13.71,28.78-7.01,53.25-22.04,74.44-16.67,23.51-45.06,23.64-73.67,23.66l-112.79.05c-33.61.02-.5-56.23-2.41-91.33,6.39-16.98,32.71-37.92,31.37-62.69,10.17-5.72,20.4-9.85,24.64-28.57-14.46-.3-26.42,15.51-24.64,28.57-18.88,10.61-32.52,41.51-31.37,62.69-43.27,91.48-22.02,260.6,25.91,291.81,3.28,18.92,10.63,44.5,38.55,50.39-14.23-22.19-25.12-41.64-38.55-50.39-17.77-51.33-44.38-96.26-36.84-154.13,32.58-9.01,70.94,2.16,103.78,2.26,49.17.16,83.81,11.93,112.16,49.02,22.25,64.74-34.29,132.97-80.07,204.12-11.29-8.39-18.06-17-32.76-13.85,60.7,59.7,192.81,107.62,256.37,85.85,27.25-9.33,68.83,1.27,93.28-31.71-83.66,30.55-206.08,36.69-277.54-19.29,30.86-54.71,62.73-106.67,108.73-149.28,16.02-14.84,68.6-12.64,83.82,4.24,41.26,45.75,78.19,95.08,100.63,158.55,13.73,3.55,30.45-9.66,51.4-23.39-1.52-4.35-6.91-8.67-15.93-5.92l-61.6-124.46c-12.79-25.84-14.47-49.14-7.83-80.14,23.34-29.89,48.82-45.97,94.03-45.46,40.19.45,82.8-15.62,126.42-.23-3.97,125.78-81.64,183.14-90.72,214.52-5.57,6.56-42.95,6.07-35.29,39.03,11.53-13.59,31.15-24.72,35.29-39.03,170.72-154.82,85.08-419.68,41.12-432.88,2.33-12.42-11.21-28.16-23.5-30.98,1.42-17.03-17.87-24.83-34.15-32.6-109.76-117.1-321.79-123.82-432.95-7.39h.02ZM1797.45,4077.84c27.79-92.21,67.02-156.55,132.89-217.71-83.41,42.73-130.55,134.21-132.89,217.71ZM1950.74,4067.78c27.15-7.9,49.19-48.96,36.67-74.86l-54.25-112.17c-57.32,51.12-98.32,110.52-115.57,191.22,43.35,5.65,86.48,9.4,133.16-4.18ZM1916.64,4368.4c-48.38-52.77-90.68-104.67-104.58-177.09-2.68-13.94-2.44-34.46-20.47-43.93,6.33,87.03,43.72,174.92,125.05,221.02h0ZM1985.89,4238.6c10.21-19.71-6.36-51.41-20.18-63.31-15.75-13.56-39.75-17.91-62.65-19.48l-84.43-5.81c6.73,79.19,46.9,146,108.49,202.07l58.77-113.45h0ZM2289.08,4355.46c63.93-56.39,103.03-122.4,109.69-199l-125.03,11.34c-24,2.18-36.81,26.08-42.32,41.07-7.35,19.98,1.42,44.08,10.73,61.71,15.16,28.72,18.65,61.87,46.93,84.88h-.01ZM2293.07,4375.44c81.25-46.61,133.05-132.41,126.89-226-20.89,93.96-57.18,161.8-126.89,226ZM2217.15,4389.56l-62.02-94.87c-12.37-18.92-31.79-25.75-52.55-26.12-19.13-.34-36.2,12.12-48.97,29.71l-63.14,87c50.83,39.17,169.5,41.79,226.68,4.28h.01ZM1975.9,4402.15c85.96,85.4,282.02,21.77,248.13,7.21-8.1-3.48-103.58,52.06-248.13-7.21Z"/>
      <path class="st1" d="M5761.02,4475.79c-138.92-28.98-243.51-137.7-275.64-264.81-36.35-143.79,12.89-293.42,128.31-380.07,109.62-82.29,243.46-99.29,370.72-41.02,109.55,50.16,190.49,157.95,203.96,290.76,11.49,113.29-27.52,226.66-110.09,303.8-83.71,78.22-200.4,115.71-317.26,91.33h0ZM5548.88,4301.07c4.63,11.89,3.19,17.15,12.73,29.09,12.91,16.18,30.28,47.8,54.64,52.13,50.41,49.94,118.59,75.26,186.82,82.9,92.14,10.32,185.29-27.03,255.69-87.8l-49.48,16.81c-27.96-52.86-62.17-104.34-72.65-160.69-9.48-50.96,43.76-84.33,88.94-85.83l124.52-4.13c13.84-.46,11.94,31.16,8.17,42.33l-37.26,110.21c-7.79,1.9-18.86,11.31-15.02,25.13-4.9,1.32-24.63,8.72-14.04,20.4,10.42,2.4,11.46-16.08,14.04-20.4,10.97-6.12,11.24-13.96,15.02-25.13,65.69-102.25,68.9-238.14,10.7-346.2-6.16-11.44-7.59-18.44-21.63-22.61-1.75-8.26-.6-29.9-23.97-27.01,6.54,15.89,17.14,24.99,23.97,27.01,23.55,56.15,53.33,104.69,51.49,167.76-39.28,12.59-80.51.62-118.74-.85-36.81-1.42-66.87.37-85.98-29.29-16.86-26.17-26.6-57.51-8.88-90.06l69.18-127.09,42.3,16.71c-23.01-28.23-51.93-42.09-87.66-54.73,3.08,7.07,10.52,17.31,6.05,23.61l-90.79,127.78c-38.45,38.69-100.66,19.6-126.64-23.63l-69.34-115.36c39.36-32.09,119.21-46.5,178.98-36.27l87.9,15.05c-128.35-66.71-305.96-10.79-396.37,107.13-134.84,175.88-38.41,396.08-12.68,393.01v.02ZM5965.68,3833.67c-77.59-55.36-176.79-45.34-259.4-12.99,1.69,6.91,8.12,11.81,12.17,12.71,80.24-38.88,161.44-20.88,247.23.27h0ZM5883.86,3942.16l64.93-90.76c-57.49-35.78-171.77-34.82-228.38-1.43l57.98,84.3c13.74,19.98,29.82,29.04,50.42,30.74,21.18,1.75,40.88-3.05,55.04-22.85ZM6143.54,4086.31c4.96-91.31-47.99-172.14-119.55-217.8,64.93,68.72,100.74,134.77,119.55,217.8ZM6122.44,4083.36c-10.23-77.78-47.09-147.9-109.19-197.12l-55.27,104.78c-14.31,27.12,3.18,53.68,17.39,71.26,15.75,19.49,88.3,22.19,147.09,21.08h0ZM6008.59,4355.58c67.84-50.63,102.78-121.88,114.36-198.18l-96.09,5.98c-31.22,1.94-55.4,14.04-68.99,36.41-14.04,23.11-7.01,48.04,6.5,73.25l44.22,82.53ZM6014.57,4373.15c77.13-30.21,103.14-101.85,127.33-165.14,3.1-18.36,6.48-36.28-3.39-54.1-13.01,93.96-58.12,165.21-123.95,219.24h0Z"/>
      <path class="st1" d="M2226.11,4053.01c36.88,75.89-2.69,104.89-8.98,139.46-7.3,9.35-27.62,26.73-38.45,34.39-62.04,43.91-137.76,16.25-180.07-39.1-28.4-49.33-22.23-101.45,9.32-145.42,22.11-30.81,50.63-50.17,90.59-52.73,56.23-3.61,96.57,19.34,127.59,63.4h0ZM2050.4,4019.61c-46.8,19.31-77.7,109-40.08,150.34-5.97-25.44-10.36-41.2,5.2-54.56,11.54-9.91,29.35-5.68,44.61,9.23.86,10.83,4.08,30.05-6.54,41.15-7.39,7.73-17.25,10.25-41.25,11.19,20.87,32.17,48.3,51.76,86.47,54.65-16.28-8.02-25.56-30.4-15.69-46.33,7.33-11.82,30.5-22.24,49.77-7.05,11.01,8.68,15.74,31-4.39,52.21,41.41-2.53,73.95-33.92,87.11-65.26,19.87-47.35,7.22-90.01-24.32-128.32-20.79-25.25-67.6-47.48-96.29-35.64l-44.6,18.4h0ZM2029.92,4126.54c-12.75,1.92-17.15,14.61-13.88,21.48,4.31,9.07,12.17,16.56,21.35,12.69,8.48-3.58,14.19-13.59,10.77-21.23-2.57-5.75-10.41-14.11-18.24-12.93h0ZM2100.27,4189.21c-10.11,7.87-6.89,21.62-.69,25.1,8.97,5.04,17.58,2.82,21.98-.81,6.72-5.55,7.32-15.96,3.85-20.43-4.92-6.33-16.7-10.44-25.14-3.86Z"/>
      <path class="st1" d="M2258.81,3825.21c-31.26,57.37-86.34,145.79-119.44,152.18-29.01,5.6-62.31,6.02-80.73-16.16-36.08-43.44-65.78-90.7-91.8-141.98,84.07-51.25,218.18-47.51,291.98,5.96h-.01ZM2215.55,3830.23c4.76,2.02,12.78,2.75,16.24,1.17,7.68-3.5,8.39-9.95.05-11.31-79.09-29.02-167.47-41.23-245.77,5.27,80.15-10.96,151.7-28.11,229.48,4.87h0ZM2167.56,3934.94l57.79-83.16c-56.01-34.86-158.45-35.1-223.9-5.29l57.75,89.92c14.51,22.59,34.32,31.68,58.77,29.84,19.42-1.46,36.05-11.86,49.57-31.31h.01Z"/>
      <path class="st1" d="M2330.33,3864.83c12.21,8.19,17.39,29.1,34.15,32.6-1.15,13.74,10.7,27.13,23.5,30.98-3.08,18.23,53.6,86.08,50.27,168.07-42.29,12.37-87.07-1.12-127.7-1.59-39.93-.47-66.07-6.41-84.44-41.87-10.34-19.96-17.46-46.44-4.42-70.9l71.89-134.84,36.74,17.54h0ZM2297.16,3866.73c59.36,61.98,110.47,123.5,115.23,214.47,1.96,5.48,15.03-3.11,14.83-8.78-1.73-51-58.38-181.04-130.07-205.69ZM2401.99,4082.82c-13.75-76.32-45.19-145.84-111.09-195.57l-52.49,95.17c-15.43,27.98-5.09,56.15,8.83,75.7,18.14,25.47,95.45,27.15,154.75,24.69h0Z"/>
      <path class="st1" d="M5923.96,4040.87c-4.43-9.38-16.45-8.38-21.74-7.99-33.8-40.46-103.9-43.2-139.77-2.9,19.98-4.81,32.67-6.12,45.41,3.17,9.06,6.6,10.94,20.55-2.72,40.84-13.79,2.45-24.77,13.05-36,6.66-18.17-10.33-20.42-22.11-17.98-42.28-34.72,37.91-46.72,85.06-25.24,127.16,19.05,37.33,54.12,63.82,97.58,65.72-10.65-10.92-18.83-18.29-20.97-26.05-2.96-10.74.78-20.44,11.65-27.13,15.79-9.71,26.03-7.76,37.53-.67,11,6.78,18.26,23.86,7.94,33.88l-21.43,20.81c44.52-3.44,82.06-25.55,95.69-67.58-12.5,6.91-24.89,11.14-35.51,7.22-7.59-2.8-15.26-10.07-24.28-30.27-13.87,15.9-30.8,25.56-54.45,22.92-14.42-1.61-25.58-16.35-33.12-34.28-4.38,20.59-7.34,38.83-21.69,43.75-11.08,3.79-27.71-.79-38.94-8.32-4.46-20.27-4.06-40.5,13.43-50.63,11.85-6.86,27.9-4.07,41.57,8.37l24.22-49.26c18.78-3.34,39.25-1.11,56.66,1.97,10.26,15.54,19.37,26.19,17.66,50.28,10.66-9.33,21.61-18.56,33.44-17.21,13.11,1.5,21.22,15.59,31.08,31.38,8.1-36.02-4.75-67.17-20.02-99.55,41.31,36.27,47.27,95.75,21.42,137.41-31.94,51.48-75.05,75.68-138.53,65.45-41.92-6.76-68.33-30.89-93.97-67.98,12.51,40.41,17.87,62.19-1.14,95.75l-65.74,116.09-29.75-5.3-54.64-52.13c.93-9.25,2.72-25.97-12.73-29.09-19.84-50.94-51.38-100.24-46.78-163.56,34.66-11.12,73.25.77,108.97,2.15,40.88,1.57,72.53,7.21,101.52,35.18-25.06-63.01-3.81-118.19,36.81-155.18,65.72-59.84,165.87-12.79,171.99,2.63l2.58,18.57h-.02ZM5777.53,4040.31c-12.99,3.29-16.25,14.28-6.34,22.09,7.31,5.76,10.24,3.41,17.9,1.2,11.08-3.2,15.45-11.43,7.73-19.26-4.16-4.22-11.46-6.01-19.29-4.03h0ZM5817.15,4087.42c-19.61,9.74-26.1,33.3-13.44,49.43,13.33,16.98,26.59,18.44,44.88,8.37,19.92-10.96,22.15-27.55,15.34-42.71-9.06-20.15-29.06-23.89-46.78-15.09h0ZM5745.73,4129.59c-11.18,7.85-6.75,19.11-3.26,23.59,5.54,7.11,14.25,9.57,18.79,6.06,7.47-5.78,10.26-16.27,7.78-23.09-2.19-6.01-12.61-14.07-23.31-6.56h0ZM5903.69,4126.34c-14.75,3.39-14.06,18.55-7.29,27.63,3.35,4.49,7.66,9.99,16.84,2.12,5.32-4.56,9.57-8.12,8.56-18.34-.7-7.04-7.17-13.92-18.11-11.41h0ZM5626.89,4353.23c-61.32-56.73-89.44-129.57-106.23-206.73-10.13,87.28,43.67,164.56,106.6,223.18,19.01,2.87,17.95-19.41-.36-16.45h0ZM5705.07,4245.44c13.51-25.9-1.17-52.09-16.57-68.85-10.18-11.09-31.02-17.86-53.14-19.04l-94.06-5.02c8.55,82.72,48.49,148.87,108.06,199.7l55.71-106.78ZM5824.78,4188.48c-12.1,6.68-8.06,16.09-3.92,20.34,8.68,8.89,15.36,7.85,20.09,4.45,8.42-6.07,11.59-19.02,5.95-22.88-7.44-5.09-15.52-5.55-22.12-1.91Z"/>
      <path class="st1" d="M5642.43,4091.11l-142.36-3.06c14.32-102.51,63.3-191.48,150.53-247.43,29.18,52.9,62.22,103.66,74.98,160.84,11.24,50.37-38.33,90.62-83.15,89.65ZM5648.09,3864.53c-83.13,41.06-126.13,132.58-128.18,214.23,25.54-86.88,64.14-156.66,128.18-214.23ZM5643.33,4075.14c28,.27,45.14-9.5,57.29-31.35,9.34-16.8,16.21-36.01,4.8-60.23l-48.32-102.62c-60.8,49.85-102.08,115.96-114.66,193.23l100.88.98h0Z"/>
      <path class="st1" d="M5975.19,4419.55c-81.37,50.27-226.19,47.55-293.08-6.77,20.2-48.31,52.51-84.94,84.58-126.75,23.48-30.62,76.87-47.67,108.46-16.27,41.56,41.31,68.82,97.69,100.03,149.8h0ZM5941.15,4390.06l-58.87-90.07c-11.96-18.3-28.63-29.56-49.08-31.25-19.29-1.6-39.53,7.02-52.58,24.3l-68.17,90.26c55.38,40.31,166.76,43.76,228.71,6.76h0ZM5956.03,4409.4c-81.8,18.42-156.21,38.83-224.53,1.93l-17.46-9.43c-3.45-1.86-9.96-3.58-15.7,8.37,78.37,43.33,183.03,52.46,257.7-.86h-.01Z"/>
      <path class="st1" d="M2060.15,4124.61c-1.09-13.69,7.01-25.25,16.73-40.94-23.46,5.34-41.71-6.63-46.45-25.63-2.73-10.96,8.89-26.47,19.98-38.42,17.24-1.51,32.61,8.36,37.5,16.71,7.93,13.55,6.25,26.63-5.31,40.92,22.35-3.56,32.83-2.52,57.89,1.41-14.26-17.53-14.84-33.25-4.34-44.98,11.01-12.3,27.95-9.58,37.38-3.75,17.15,10.61,20.4,28.44,9.19,42.13-7.45,9.1-19.05,15.3-40.54,12.22,17.62,24.19,16.87,42.5.48,63.16-10.05,12.66-29.53,20.01-49.47,13.2-13.8-4.71-21.62-24.25-33.04-36.03h0ZM2051.76,4043.29c-8.61,9.58-4.09,20.81,1.46,22.57,7.64,2.42,13.07,2.17,16.96-.61,7.2-5.13,7.79-17.79,3.21-22.65-4.32-4.59-13.73-8.1-21.63.69ZM2152.98,4040.41c-13.55,7.43-9.34,20.13-2.41,25.85,3.52,2.91,10.79,4.69,17.23-.1,4.85-3.61,8.2-11.52,4.94-20.04-1.62-4.23-11.08-10.48-19.77-5.71h.01ZM2100.93,4087.29c-20.03,7.2-29.5,29.9-21.17,44.48,8.82,15.43,26.35,21.74,43.15,13.24,11.49-5.81,25.14-20.4,18.16-36.1-6.23-14.01-23.64-27.56-40.14-21.63h0Z"/>
      <path class="st1" d="M2176.44,4112.58c20.7-6.52,35.67,7.33,38.01,18.43,3.06,14.54-8.43,36.86-12.51,38.18-22.73,11.86-36.58-3.96-41.05-10.75-8.43-18.88-3.15-39.98,15.55-45.87h0ZM2178.68,4126.22c-10.35,6.22-8.64,17.36-6.21,23.25,4.09,9.92,16.24,13.32,23.37,6.06,5.82-5.94,6.67-16.82,1.35-24.34-2.91-4.11-9.63-10.3-18.5-4.97h-.01Z"/>
      <path class="st1" d="M5902.22,4032.87c8.11,5.32,15.96,16.72,11.99,25.88-10.18,23.49-32.27,24.58-52.4,17.21-9.59-14.53-15.27-33.83-1.92-43.62,11.61-8.51,30.37-7.31,42.33.53h0ZM5882.58,4066.8c14.95,1.93,19.27-9.66,17.47-16.17-2.37-8.57-8.3-8.44-12.41-9.53-7.58-2.02-20.2,1.81-20.95,8.98-.74,6.99,7.29,15.61,15.89,16.72h0Z"/>
    </g>
    <g id="Fill" class="st4">
      <polygon class="st2" points="3104.19 4294.26 2629.26 4297.66 2624.87 4134.66 3077.29 4127.19 3694.51 4118.46 4031.37 4115.97 4391.62 4110.24 4931 4102.92 5316.43 4101.79 5311.9 4267.1 5032.22 4270.79 4391.13 4278.17 3718.21 4286.06 3104.19 4294.26"/>
      <polygon class="st2" points="2815.03 4113.66 2798.61 4035.57 2775.96 3855.33 2818.91 3852.21 3152.74 3846.58 3520.37 3838.71 3869.3 3830.79 4223.56 3823.71 4289.48 3822.13 4300.46 3910.4 4329.25 4093.93 4038.46 4098.57 3405.19 4106.21 2815.03 4113.66"/>
      <path class="st2" d="M2760.39,3653.22c-4.76-55.95-4.08-109.83,2.44-160.48l163.33-5.91,215.32-8.24,214.8-7.41,231.18-8.24,222.62-7.12,223.9-9.43,253.85-8.92c-9.28,87.59-6.66,168.78-4.19,261.17l-286.15,7.71-402.19,6.79-418.97,8.62-357.49,4.49-51.92,3.49-6.51-76.51h0Z"/>
      <path class="st2" d="M5219.14,3690.42l-519.47.4-301.47,7.13c-33.35.79-62.96,4.64-100.6.06l4.1-259.22,170.49-7.03,229.77-7.27,214.88-3.09c-31.76,18.77-68.56,11.9-102.46,44.65l282.84-19.62,89.74-6.92,98.71-8.21,97.33-6.85,114.06-8.24,119.58-5.88c-40.74,88.61-90.81,161.88-141.83,239.79-19.78,30.21-36.65,61.76-63.6,83.64-37.08-9.3-69.85-3.58-105.13-2.95l-341.31,6.08-348.88,7.95-311.26,4.83c-8.07-8.92-7.67-26.67-2.63-36.68l248.27-7.3,308.09-7.22c77.94-1.83,157.2-2.49,234.78-.16l238.09,7.17c26.7.8,53.67,9.94,80.14-3.72l-192.22-11.37v.03Z"/>
      <path class="st2" d="M5710.9,3129.01c2.13-96,21.76-153.44-52.37-241.74-82.38-98.12-175.47-183.82-281.23-256.56-63.72-43.83-131.72-65.94-206.31-75.69-153.62-20.08-302.04-18.35-459.41-19.58-278.56-2.17-549.55,7.51-823.28,43.51-144.78,19.04-273.71,54.8-406.24,119.6-195.89,95.78-378.21,207.72-552.3,338.99l-166.56,125.59c-24.13-8.85-45.35-6.64-75.03-14.28,178.39-126.88,355.23-244.21,544.94-354.12,124.01-71.85,241.81-139.78,377.36-184.64,189.4-62.68,385.57-78.32,580.35-94.9l128.43-6.2,185.17-8.06,556.07-.49,149.59,7.71,87.37,7.7c105.76,9.32,203.46,33.08,299.47,90.79,184.16,110.69,349.6,239.47,523.37,366.72,38.92,28.5,72.98,63.39,117.83,77.4l128.22,12.91,138.06,10.76,429.67,42.94c7.72,2.57-1.92,26.72-12.18,26.03l-119.66-8.04-219.09-8.43-654.24-.7-218.01,2.77h0Z"/>
      <path class="st2" d="M5301.82,3802.21c36.26-.56,60.99-11.8,65.63-45.84l-157.91,4.02-338.67,7.78-332.55,8.19-218.07,3.79c-6.24.11-14.47-8.49-14.92-15.91l144.04-3.76,346.62-7.67,363.86-8.18,252.15-4.54c-76.82,103.96-119.46,215.46-130.64,343.56l-592.33,7.53-338.4,2.86-17.31-76.97-27.54-193.74,283.6-8,355.27-7.63,357.15-5.49h0Z"/>
      <path class="st2" d="M2764.19,3480.64c8.16-69.87,27.04-130.11,54.67-197.5l281.24-17.75,146.72-5.55,176.15-8.4,152.34-7.16,160.92-8.27,160-7.15,169.39-7.86,248.88-11.64-26.23,216.16-157.9,6.4-206.5,7.4-223.46,8.23-230.18,7.58-219.21,7.71-224.12,7.99-262.7,9.8h0ZM4148.85,3360.62l73.36-7.04c16.75-1.61,28.07-15.52,26.26-30.48-1.55-12.83-11.49-24.13-26.46-24.11l-81.44.1c-33.3-49.2-135.83-49.44-174.31-5.94-32.94,37.23-75.65,13.89-77.85,44.79-.61,8.54,5.54,20.97,17.36,20.81l39.88-.54c23.23,36.02,59.66,51.16,98.16,52.33,38.49,1.17,81.69-10.2,105.03-49.91h0Z"/>
      <path class="st2" d="M5172.03,3376.37l-150.05,23.63-218.26,9.45-214.75,6.41-233.71,6.89c-16.77.49-33.32,4.48-50.97-.22l13.24-122.55,15.66-88.05,250.54-15.54,165.19-7.23,168.76-8.07,160.13-7.13,176.72-8.08,177.76-9.88,153.11-5.56,100.43-3.41-35.51,178.66-182.35,14.82c20.18-11.54,36.41-24.31,50.49-44.62l62.12-1.99c15.68-.5,20.38-16.17,20.94-27.57.71-14.46-3.43-28.36-24.31-31.46s-53.22,7.51-70.82-5.56c-47.77-35.48-118.88-42.32-168.02-3.25-18.6,14.79-22.73,35.53-57.18,28.8-9.09-1.77-27.42,11.1-26.89,20.12.89,15.02,9.19,27.75,29.71,25.58,9.26-.98,29.54-1.08,35.7,4.23,18.69,28.87,45.47,39.2,83.77,39.46-34.86,17.34-72.22,11.38-109.01,16.18l-122.43,15.98v-.03Z"/>
      <path class="st2" d="M5484.74,3668.1l153.93-261.06,116.99-6.85,167.63-6.86c47.28-1.93,109.41-7.38,153.89-1.38,14.67,21.13,30.13,46.15,68.08,45.84l92.36-.76c39.89-.33,72.46-14.46,79.9-56.3l212.26-3.71,234.5-2.14-11.95,162.43c-1.03,13.98-12.2,30.75-29.72,32.37l-442.89,41.16c-52.09,4.84-100.58,11.34-152.33,30.94-93.68-68.06-204.59-88.26-319.99-81.87-118.91.16-228.84,43.84-322.67,108.19h0Z"/>
      <path class="st2" d="M6202.46,3720.22l3.94-18.11c33.65,11.92,71.59,1.57,109.84.85l264.02-4.99,316.53-8.27,217.73-2.29c9.81-.1,15.83-1.79,23.34,11.8l-65.17,8.25-406.46,6.23-357.45,5.36-50.16,5.86c7.39,14.08,19.37,34.34,33.67,38.58l167.57-3.27,253.26-7.44,261.75-8.22,160.99-1.41c6.13,53.65-5.03,103.2-20.1,154.78l-26.99,92.38-55.84,5.91-213.85,6.53-238.97,8.13-213.67,5.23c-27.04-113.55-72.42-212.22-147.37-295.44-3.84-4.26-9.26-7.62-16.6-.44h0Z"/>
      <path class="st2" d="M1471.13,3836.71c3.77-6.78,6.62-11.35,7.13-13.84.57-2.78-2.27-7.15-4.56-8.61-4.36-2.8-11.72-.99-15.78,6.54-53.54,99.15-116.39,190.65-210.27,267.38-23.46-77.74-83.4-131.69-166.39-138l-237.23-18.02c-13.74-1.04-27.55-4.61-32.06-19.58,26.08-7.75,54.21,4.32,73.48-7.57,19.35-12.46,12.69-50.73,7.13-67.49l-75.35-1.38c-2.69-15.05,9.16-22.45,21.5-25.69l68.4-17.98c4.31,10.92-2.56,19.23-3.78,22.92-6.51,19.73,48.42,9.88,94.82,7.09l112-6.74,106.66-8.75,110.5-7.11c104.72-6.74,208.93-24.46,320.74-28.1-67.89,105.55-86.36,226.3-92.7,347.21-154.84,28.07-296.18,73.73-445.28,131.23,11.15,15.55,30.68,14,49.61,13.96l396.81-.7,1.58,35.95-375.04-16.89-330.88-21.57c-9.45-.62-13.85-8.4-17.8-11.05-45.03-30.16,75.28-13.35,148.26-28.4,77-15.88,178.45-6.74,267.43-77.18,71.37-56.5,122.15-129.89,166.24-209.08l54.85-98.54h-.03Z"/>
      <path class="st2" d="M6277.39,3219.39c-48.07-19.14-161.83-17.58-191.27,15.02-14.53,16.09-18.29,37.16-12.69,62.23-20.29,14.03-46.24,8.04-67.42,9.33l-145.67,8.87-120.17,6.76c-24.69,1.39-47.11,4.08-72.6,2.44l36.53-179.09,68.22-5.89,920.38,2.96c75.68.24,146.24,4.2,226.76,14.75l-56.3,124.71-46.81,4.31-452.66,2.1c-18.07.08-33.27,6-52.51,1.92-3.13-20.48-7.05-59.78-33.78-70.43h0Z"/>
      <path class="st2" d="M2558.48,3424.1l-417.07-.24-121.11,7.2c-189.9,11.28-373.58,43.4-556.76,96.11-32.08,9.23-57.11,29.93-93.69,17.01,45.62-44.88,95.87-75.31,155.92-95.11,174.04-57.39,349.12-96.27,531.27-125.71l424.36-68.55c69.12-11.17,122.01-49.57,179.9-87.92,19.19-12.71,57.82.71,81.16,10.02-36.3,33.67-67,62.78-44.9,92.19,4.88,6.49,16.69,14.86,29.86,14.81l74.31-.3-30.25,89.24-17.46,63.32-71.7-4.74-123.82-7.34h0Z"/>
      <path class="st2" d="M2127.31,3520.32l-24.7-7.05-19.86,6.81c-172.17,1.16-334.12,89.08-423.48,232.95l-144.72,3.35,83.36-141.32c7.98-13.52,22.73-27.4,13.71-52.48l269.87-38.01,74.17-6.3,91.38-8.22,190.89-7.1,315.84-8.83,190.32-1.07,4.59,239.54-186.32,27.55c-.74,1.99-2.87,6.16-3.11,11.37l191.14-25.46c3.72,11.31,4.06,24.83,2.03,37.12-76.51,13.64-154.52-11.98-189.02,12.63-87.09-165.48-245.97-273.36-436.11-275.49h0ZM2700.3,3580.53c1.81-39.5-103.73-41.95-120.62-5.17-2.39,5.21-3.06,18.02,6.56,23.16,45.49,24.29,112.67,12.2,114.05-17.99h.01Z"/>
      <path class="st2" d="M6902.39,3033.23l-376.23,7.58c95.75-120.37,190.64-222.18,298.67-317.47,87-17.5,170.29-20.85,262.04-18.31-7.66,95.47-25.14,180.48-52.64,266.9-34.89,34.96-79.42,60.23-131.84,61.29h0Z"/>
      <path class="st2" d="M6387.04,4153.32l-14.52-121.03,114.66-5.15,230.19-8.61,214.42-7.26,157.91-4.99c22.2,13.57,42.41,32.53,56.5,55.97l-275.24,50.92-483.92,40.15h0Z"/>
      <path class="st2" d="M4623.02,2486.86l-228.96,6.27-160.98,7.92-113.53,6.38-153.27,17.15c-125.58,14.05-248.92,34.94-367.8,73.22l-63.2-22.02c150.71-52.24,297.92-74.79,452.38-90.96,244.24-25.56,485.45-26.6,731.08-32.77l72.76.47c192.43,1.23,381.01,3.19,572.34,25.29,77.79,8.99,150.44,21.81,226.02,53.63l-59.22,24.99c-45.36-21.67-93.54-32.37-143.04-40.24-140.73-22.4-280.2-29.97-423.94-29.78l-340.63.45h0Z"/>
      <path class="st2" d="M1338.55,3555.46l-246.03,24.74c183.09-158.26,465.38-218.69,706.62-264.71,195.69-37.33,388.78-60.75,586.19-85.93,43.46-5.54,84.61-19.62,131.8-.38l-471.06,76.21c-171.31,27.71-336.69,61.87-500.47,117.13-80.06,27.01-152.79,61.87-207.05,132.95h0Z"/>
      <path class="st2" d="M2132.66,3494.5l-138.95,7.47c-33.94,1.83-70.1,5.91-106.38,10.15l-265.81,31.08-165.48-.12c170.51-49.75,342.37-83.86,518.89-96.4l103.32-7.35,203.87-7.53c25.82-.95,45.61-.58,70.91.15l279.01,7.98c67.87,1.94,127.01,5.74,118.11,30.43-4.01,11.13-11.76,9.16-25.7,9.44l-384.71,7.63-207.12,7.07h.02Z"/>
      <path class="st2" d="M3131.05,3775.94l-359.72,8.18c-4.9-18.37-4.73-27.14-3.77-41.28l202.66-5.58,401.6-7.88,419.24-8.08,409.12-6.6c25.95-.42,77.46-8.45,81.71-.47,4.12,7.72,5.15,24.9,1.81,31.24-2.37,4.48-48.72,7.2-91.59,8.03l-354.19,6.82-379.79,8.2-327.06,7.42Z"/>
      <path class="st2" d="M2654.03,3858.98l106.01-5.91,37.9,258.33c-55.16,5.75-99.4,6.68-146.43.33-8.5-112.5-33-212.75-83.66-306.11,14.47-12.9,30.11-8.68,47.04-8,49.21,1.98,94.96-10.63,147.84,7.28-50.88,24.22-103.43,10.41-157.7,10.83-9,9.18,1.42,26.46,8.44,32.91,10.6,9.74,24.62,11.24,40.55,10.35h0Z"/>
      <path class="st2" d="M1128.59,4121.82c119.09-2.75,140.7-34.67,218.74-106.43-60.38,104.67-159.16,168.43-277.23,183.33l-82.11,10.36c-52.67,6.64-101.75,14.2-150.66,4.65,39.49-11.5,81.51-18.1,94.51-59.03,19.67-61.97,21.77-126.98,27.74-192.11l110.74,8.78c-1.91,48.45-2.98,94.44,8.85,142.23-59.08,10.31-117.09,23.14-151.11,75.21,66.65-43.3,125.38-65.23,200.53-66.97h-.01Z"/>
      <path class="st2" d="M4318.37,3195.98c-30.73,1.33-56.27,5.58-82.4-.55l97.47-497.07,29.55-138.87c13.36-2.88,27.57-4.81,46.77-.01l-91.39,636.5h0Z"/>
      <path class="st2" d="M7032.14,3542.8c-6.4-21.87-5.78-72.33-33.46-73.14l-224.96-6.61c-.4-27.88-4.87-70.82,17.22-92.22,53.87-52.2,125.56-71.01,202.31-94.42,27.5,38.26,43.13,84.86,41.93,135.94l-3.05,130.48h.01Z"/>
      <path class="st2" d="M6733.1,3681.52l-316.67,9.07-178.5,3.55c-7.92-.89-13.39-7.52-13.22-11.89.23-5.87,5.02-9.97,13.53-10.81l306.57-30.06,110.26-7.36,141.33-8.13,266.3-2.49,59.3,51.99-70.72.95-318.17,5.18h0Z"/>
      <path class="st2" d="M3150.87,3184.79c-72.22,23.97-137.28,38.1-210.7,35.98-8.12-48.52-24.78-113.79,2-153.85,43.47-34.04,111.85-37.89,164.65-46.69,43.85-7.31,47.43,86.57,44.05,164.55h0Z"/>
      <path class="st2" d="M4434.76,2912.94l-8.74,94.77-6.46,88.96-8.95,93.18-77.99,3.2,90.73-632.66c6.65-8.75,32.37-7.67,41.43-3.34l-15.14,156-8.16,106.45-6.72,93.41h0Z"/>
      <path class="st2" d="M6716.25,3619.67l-165.37,10.54-407.77,29.08c186.35-52.09,379.31-52.54,569.32-70.7,26.92-2.57,46.55-10.95,60.85-34.13l280.57,3.1,1.9,54.92c-42.21-6.56-73.85-1.68-109.69-.48l-229.82,7.67h0Z"/>
      <polygon class="st2" points="6772.53 3363.47 6317.58 3366.25 6314.93 3303.41 6514.92 3299.02 6861.35 3297.95 6772.53 3363.47"/>
      <path class="st2" d="M5238.76,3423.55l-94.19,7.51-99.16,7.91-167.77,10.27,186.6-43.45,117.79-18.13,83.06-10.52,370.68-35.79c10.04,19.26-3.76,51.52-22.52,53.16l-74.66,6.54-96.53,6.83-106.19,8.73-97.08,6.95h0Z"/>
      <path class="st2" d="M3107.96,3807.65l-336,4.23c.2-8.79,7.92-15.61,14.7-15.83l175.52-5.54,315.96-6.38,387.52-8.35,355.24-6.83,253.46-5.04c6.38-.13,14.73,9.45,14.8,15.7-41.28,3.46-80.68-6.7-120.22,6.23l-338.98,5.48-379.76,8.42-342.24,7.9h0Z"/>
      <path class="st2" d="M1555.57,4248.32l-399.52.27c127.8-51.94,255.32-90.75,397.17-117.23l2.35,116.96Z"/>
      <path class="st2" d="M5822.97,3385.06l-178.22,10.24,20.22-54.65,140.18-9.24,129.88-10.46,137.7-6.36c2.84,25.44,6.73,38.73,3.75,60.41-25.87,1.19-47.79-5.59-68.36,3.97l-185.13,6.07v.02Z"/>
      <path class="st2" d="M1168.55,3758.12c-5.08-12.77,5.69-24.35,12.88-35.29l92.4-17.46,60.74-32.3,194.42-4.75-56.8,86.18-303.65,3.62h0Z"/>
      <path class="st2" d="M1351.14,3655.16c-24.07-.04-34.39,13.37-53.23,23.33,18.8-35.41,23.09-64.89,12.47-101.15l265.92-11.94c-5.43,37.46-24.02,60.4-42.19,90.09l-182.97-.32h0Z"/>
      <path class="st2" d="M1378.74,3404.66l-165.75,75.9c-55.49,25.51-102.51,61.5-146.24,103.82l-104.92,1.09c76.03-67.89,162.7-123.88,261.78-153.12,40.72-12.01,87.58-.33,126.32-26.61,6.5-4.41,22-1.83,28.8-1.09h0Z"/>
      <path class="st2" d="M6394.48,4192.74c-9.6.94-12.92-11.12-9.74-17.24,3.11-5.97,5.11-9.9,17.99-10.87l320.37-24.11c120.88-9.1,234.06-25.73,352.04-53.78,20.89-4.97,46.26-16.08,67.04,3.22l-255.9,54.78-491.82,47.99h0Z"/>
      <path class="st2" d="M7012.33,3537.72l-241.3,1.12,2.62-61.41,213.2.13c19.6,0,29.79,31.8,25.47,60.16h0Z"/>
      <path class="st2" d="M6297.4,3291.41l-150.08,6.63-59.09,2.63c-7.11-14.39-6.56-33.19,1.36-48.47,6.92-13.36,25.67-26.85,46.77-26.81l125.3.23c24.99.05,36.86,37.5,35.75,65.8h0Z"/>
      <path class="st2" d="M933.58,3797.74c-1.08-2.62.45-.59,4.42.51,14.78-12.76,28.45-23.15,48.61-23.42l403.84-5.28c26.06-.34,54.37-12.34,82.99-2.28-30.6,24.35-71.54,12.73-106.18,15.62l-108.83,9.06-100.22,8.83-98.72,5.57c-48.23,2.72-97.94,6.4-143.79,5.19,8.26-14.51,18.05-12.45,17.88-13.81h.01Z"/>
      <path class="st2" d="M1225.03,4087c-47.14,11.85-89.23,16.27-133.12,14.47l-7.3-130.95c67.47,5.55,119.01,50.26,140.43,116.47h-.01Z"/>
      <path class="st2" d="M6214.34,3369.9l-121.62,1.73-4.55-55.79,154.29-8.56,55.8-.99c4.67,19.07,5.83,36.52,4.37,61.09-31.91,2.11-59.55-6.49-88.3,2.51h0Z"/>
      <path class="st2" d="M6743,3075.23l-122.38-10.88,256.18-15.36c45.68-2.74,84.41-8.51,130.55-30.85-12.57,34.14-29,55.86-50.67,80.97l-213.68-23.89h0Z"/>
      <polygon class="st2" points="6990.94 3263.17 6870.92 3302.64 6955.04 3119.77 6990.94 3263.17"/>
      <path class="st2" d="M2809.69,3263.7l-85.3.02c-11.29,0-14.11-12.11-12.57-18.37,1.55-6.29,4.14-16.67,11.06-22.3l119.5-97.27-32.69,137.92h0Z"/>
      <path class="st2" d="M6277.4,3380.53c43.95-1.88,33.17,67.26-151.11,42.6-16.5-2.21-29.98-18.94-31.43-34.8l182.54-7.8h0Z"/>
      <path class="st2" d="M2911.17,3194.67l16.3,31.41c-30.77,6.96-57.32,10.92-92.4,11.21,8.83-45.62,16.76-90.14,37.35-131.23,7.27-13.26,26.54-21.85,40.74-30.82l1,101.89c-26.26,14.94-51.8,21.69-66.46,50.63l63.46-33.11h0Z"/>
      <polygon class="st2" points="6495.21 3060.95 6277.23 3041.71 6378.28 3014.04 6515.84 3021.29 6495.21 3060.95"/>
      <path class="st2" d="M1258.7,3686.26c-21.51,15.58-47.66,14.52-70.87,20.73l13.18-59.77c4.63-20.99,5.08-38.41-10.95-53.89l95.04-9.35c-24.63,28.48-30.49,56.33-26.4,102.29h0Z"/>
      <path class="st2" d="M5395.12,3281.59c-42.95.33-86.29,6.21-126.49-1.39-.52-1.61-.59-5.63,3.03-8.27l116.39-12.88,134.17-9.31c4.64,8.33,6.67,20.78,2.33,30.84l-129.43,1h0Z"/>
      <path class="st2" d="M1080.1,3752.68c20.68-35.87,34.78-81.16,23.24-121.28-9.97,4.61-15.59,6.08-18.21,5.53s1.33-8.12-.04-4.9c-8.88-10,8.32-17.51,8.96-4.55,23.78-25.68,44.15-35.84,73.76-30.9-28.98,43.9-49.54,98.52-48.31,153.27.17,7.7-18.68,17.08-39.4,2.84Z"/>
      <path class="st2" d="M1037.52,3611.86l-111.93,131.82,39.17-134.18c23.05-.34,37.36-5.5,72.77,2.36h0Z"/>
      <path class="st2" d="M5490.48,3238.34c-56.24,6.23-99.74,12.39-154.19,9.52,28.76-41.52,123.71-44.47,154.19-9.52Z"/>
      <path class="st2" d="M881.43,3891.16c-22.25,8.65-47,4.16-70.14,2.98l.48-40.4,70.04.07c4.24,8.21,6.07,27.01-.38,37.35Z"/>
      <path class="st2" d="M1048.9,3759.71c-22.2,4.1-35.8,5.24-57.56-.3l57.76-82.46c-.88,30.3-9.8,48.73-.19,82.76h0Z"/>
      <path class="st2" d="M2504.12,4325.49c-67.96,133.2-194.65,222.21-330.69,241.01-156.5,21.64-302.05-36.82-401.62-154.97-100.9-119.73-135.7-276.62-85.65-434.07,40.87-128.57,146.94-243.22,290.78-288.56,162.17-51.12,340.75-4.91,457.63,122.5,129.96,141.68,155.56,345.48,69.54,514.08h.01ZM2279.32,4439.25c113.57-63.15,181.65-175.55,188.05-297.09,6.74-128.11-48.77-250.57-157.11-323.55-112.2-75.58-250.84-84.72-370.99-19.93-104.47,56.34-178.86,165.46-186.06,294-7.56,135.05,50.13,256.6,156.4,328.84,110.02,74.78,252.95,82.64,369.7,17.73h0Z"/>
      <path class="st2" d="M6045.85,4515.33c-189.21,107.16-417.74,55.51-553.25-107.1-176.45-211.74-124.84-532.15,111.16-675.11,219.29-132.83,499.56-54.15,620.41,170.9,116.26,216.51,40.66,487.27-178.33,611.3h0ZM5761.02,4475.79c116.87,24.38,233.55-13.11,317.26-91.33,82.56-77.14,121.58-190.51,110.09-303.8-13.47-132.82-94.41-240.61-203.96-290.76-127.26-58.27-261.1-41.27-370.72,41.02-115.42,86.64-164.67,236.28-128.31,380.07,32.13,127.12,136.74,235.83,275.64,264.81h0Z"/>
      <path class="st2" d="M4121.91,3295.99c-42.89,13-101.42,17.32-154.89,14.13,41.84-43.35,103.85-50.87,154.89-14.13Z"/>
      <path class="st2" d="M4235.84,3325.23c-16.24,20.57-55.17,18.55-60.69,10.71-3.19-4.53-3.4-13.25.37-18.52,4.81-6.73,39.21-9.55,60.33,7.82h0Z"/>
      <path class="st2" d="M2689.87,3577.29c-21.53,31.95-68.73,28.44-101.09,5.03,24.69-24.84,64.88-30.36,101.09-5.03Z"/>
      <path class="st2" d="M2330.33,3864.83l-36.74-17.54-71.89,134.84c-13.04,24.46-5.92,50.94,4.42,70.9-31.01-44.06-71.35-67.01-127.59-63.4-39.96,2.56-68.48,21.92-90.59,52.73-31.55,43.96-37.71,96.08-9.32,145.42-28.35-37.09-62.99-48.87-112.16-49.02-32.85-.1-71.2-11.27-103.78-2.26-7.53,57.86,19.07,102.79,36.84,154.13-47.93-31.21-69.18-200.33-25.91-291.81,1.91,35.1-31.2,91.35,2.41,91.33l112.79-.05c28.61,0,56.99-.15,73.67-23.66,15.03-21.19,35.76-45.67,22.04-74.44l-70.97-148.95-36.15,14.42c111.15-116.41,323.18-109.71,432.95,7.39v-.02ZM2258.81,3825.21c-73.79-53.47-207.91-57.21-291.98-5.96,26.02,51.26,55.72,98.53,91.8,141.98,18.42,22.18,51.72,21.76,80.73,16.16,33.09-6.38,88.17-94.8,119.44-152.18h.01Z"/>
      <path class="st2" d="M2217.12,4192.46c-6.63,30.99-4.96,54.3,7.83,80.14l61.6,124.46c9.02-2.75,14.41,1.57,15.93,5.92-20.95,13.73-37.67,26.95-51.4,23.39-22.44-63.46-59.37-112.79-100.63-158.55-15.22-16.88-67.81-19.07-83.82-4.24-46,42.6-77.88,94.56-108.73,149.28,71.45,55.98,193.88,49.84,277.54,19.29-24.45,32.98-66.04,22.38-93.28,31.71-63.57,21.77-195.68-26.15-256.37-85.85,14.7-3.15,21.47,5.46,32.76,13.85,45.78-71.14,102.32-139.38,80.07-204.12,42.31,55.35,118.02,83,180.07,39.1,10.83-7.66,31.15-25.04,38.45-34.39h-.01Z"/>
      <path class="st2" d="M2346.86,4361.29c9.07-31.38,86.74-88.74,90.72-214.52-43.62-15.38-86.22.69-126.42.23-45.22-.51-70.7,15.57-94.03,45.46,6.29-34.55,45.86-63.56,8.98-139.46,18.37,35.46,44.51,41.4,84.44,41.87,40.62.48,85.4,13.96,127.7,1.59,3.33-81.97-53.34-149.83-50.27-168.07,43.96,13.21,129.6,278.07-41.12,432.88h0Z"/>
      <path class="st2" d="M1793.58,3998.78c-1.15-21.18,12.5-52.08,31.37-62.69,1.33,24.77-24.98,45.7-31.37,62.69Z"/>
      <path class="st2" d="M1819.5,4290.59c13.43,8.75,24.33,28.2,38.55,50.39-27.92-5.88-35.27-31.47-38.55-50.39Z"/>
      <path class="st2" d="M1897.38,3857.43c-15.09,11.73-20.36,33.44-42.33,39.5,3.75-20.51,24.52-32.4,42.33-39.5Z"/>
      <path class="st2" d="M2346.86,4361.29c-4.14,14.32-23.76,25.44-35.29,39.03-7.65-32.96,29.72-32.47,35.29-39.03Z"/>
      <path class="st2" d="M2364.48,3897.43c-16.76-3.5-21.94-24.42-34.15-32.6,16.28,7.77,35.57,15.57,34.15,32.6Z"/>
      <path class="st2" d="M1824.97,3936.09c-1.78-13.06,10.17-28.87,24.64-28.57-4.24,18.72-14.47,22.85-24.64,28.57Z"/>
      <path class="st2" d="M2387.98,3928.41c-12.81-3.85-24.65-17.23-23.5-30.98,12.29,2.81,25.83,18.56,23.5,30.98Z"/>
      <path class="st2" d="M6110.06,3927.3c14.04,4.17,15.47,11.17,21.63,22.61,58.19,108.07,54.99,243.95-10.7,346.2l37.26-110.21c3.78-11.17,5.67-42.79-8.17-42.33l-124.52,4.13c-45.18,1.5-98.42,34.87-88.94,85.83,10.48,56.34,44.69,107.82,72.65,160.69l49.48-16.81c-70.41,60.77-163.55,98.11-255.69,87.8-68.22-7.64-136.41-32.97-186.82-82.9l29.75,5.3,65.74-116.09c19.01-33.57,13.65-55.34,1.14-95.75,25.64,37.09,52.04,61.22,93.97,67.98,63.47,10.23,106.58-13.97,138.53-65.45,25.84-41.66,19.89-101.14-21.42-137.41l-2.58-18.57c-6.12-15.42-106.25-62.47-171.99-2.63-40.62,36.98-61.88,92.16-36.81,155.18-28.99-27.97-60.64-33.61-101.52-35.18-35.72-1.37-74.31-13.27-108.97-2.15-4.6,63.31,26.94,112.61,46.78,163.56-25.73,3.07-122.16-217.13,12.68-393.01,90.4-117.92,268.02-173.86,396.37-107.13l-87.9-15.05c-59.77-10.23-139.62,4.18-178.98,36.27l69.34,115.36c25.99,43.24,88.2,62.32,126.64,23.63l90.79-127.78c4.47-6.3-2.97-16.54-6.05-23.61,35.73,12.64,64.65,26.5,87.66,54.73l-42.3-16.71-69.18,127.09c-17.72,32.55-7.98,63.89,8.88,90.06,19.11,29.66,49.18,27.87,85.98,29.29,38.22,1.47,79.45,13.43,118.74.85,1.84-63.06-27.94-111.6-51.49-167.76l.02-.02ZM5642.43,4091.11c44.82.96,94.39-39.28,83.15-89.65-12.76-57.16-45.81-107.93-74.98-160.84-87.22,55.94-136.2,144.91-150.53,247.43l142.36,3.06ZM5975.19,4419.55c-31.21-52.1-58.47-108.48-100.03-149.8-31.59-31.4-84.98-14.34-108.46,16.27-32.06,41.8-64.37,78.43-84.58,126.75,66.89,54.33,211.71,57.04,293.08,6.77h0Z"/>
      <path class="st2" d="M5883.86,3942.16c-14.16,19.8-33.86,24.6-55.04,22.85-20.59-1.7-36.67-10.76-50.42-30.74l-57.98-84.3c56.62-33.39,170.89-34.35,228.38,1.43l-64.93,90.76Z"/>
      <path class="st2" d="M5616.24,4382.3c-24.36-4.34-41.72-35.96-54.64-52.13l54.64,52.13Z"/>
      <path class="st2" d="M6110.06,3927.3c-6.82-2.02-17.43-11.12-23.97-27.01,23.37-2.89,22.22,18.75,23.97,27.01Z"/>
      <path class="st2" d="M5561.6,4330.17c-9.54-11.95-8.1-17.21-12.73-29.09,15.45,3.12,13.66,19.84,12.73,29.09Z"/>
      <path class="st2" d="M2050.4,4019.61c-11.08,11.95-22.71,27.46-19.98,38.42,4.74,19,22.99,30.97,46.45,25.63-9.73,15.69-17.82,27.25-16.73,40.94-15.27-14.91-33.08-19.13-44.61-9.23-15.56,13.36-11.17,29.12-5.2,54.56-37.62-41.32-6.72-131.03,40.08-150.34h-.01Z"/>
      <path class="st2" d="M2029.92,4126.54c7.83-1.18,15.67,7.18,18.24,12.93,3.42,7.63-2.29,17.65-10.77,21.23-9.18,3.88-17.04-3.61-21.35-12.69-3.26-6.86,1.13-19.55,13.88-21.48h0Z"/>
      <path class="st2" d="M5745.73,4129.59c10.69-7.51,21.12.55,23.31,6.56,2.49,6.82-.3,17.31-7.78,23.09-4.54,3.51-13.25,1.05-18.79-6.06-3.49-4.48-7.92-15.74,3.26-23.59h0Z"/>
      <path class="st2" d="M5903.69,4126.34c10.94-2.51,17.42,4.37,18.11,11.41,1.01,10.22-3.23,13.78-8.56,18.34-9.19,7.87-13.49,2.37-16.84-2.12-6.78-9.08-7.47-24.24,7.29-27.63h0Z"/>
      <path class="st2" d="M5824.78,4188.48c6.6-3.65,14.69-3.18,22.12,1.91,5.64,3.86,2.47,16.81-5.95,22.88-4.73,3.4-11.41,4.45-20.09-4.45-4.14-4.25-8.18-13.65,3.92-20.34Z"/>
      <path class="st2" d="M2100.93,4087.29c16.5-5.93,33.91,7.62,40.14,21.63,6.98,15.7-6.67,30.29-18.16,36.1-16.8,8.5-34.33,2.19-43.15-13.24-8.33-14.58,1.14-37.29,21.17-44.48h0Z"/>
      <path class="st2" d="M2051.76,4043.29c7.9-8.79,17.31-5.27,21.63-.69,4.58,4.87,3.99,17.52-3.21,22.65-3.89,2.77-9.31,3.03-16.96.61-5.55-1.76-10.07-12.99-1.46-22.57Z"/>
      <path class="st2" d="M2178.68,4126.22c8.87-5.33,15.59.85,18.5,4.97,5.33,7.52,4.48,18.41-1.35,24.34-7.13,7.27-19.28,3.87-23.37-6.06-2.43-5.89-4.14-17.04,6.21-23.25h.01Z"/>
      <path class="st2" d="M2938.95,3837.11c-50.14,12.19-99.42,2.66-152.41,5.54-6.31.34-14.51-8.72-14.82-15.44l162.93-3.72,339.86-8.83,363.39-6.84,364.04-8.56,287.2-4.08c-.37,8.83-7.96,15.42-14.83,15.57l-237.77,5.25-331.89,6.8-403.17,8.46-362.54,5.86h0Z"/>
      <path class="st2" d="M1475.54,3376.41c40.34-27.91,100.05-36.98,153.27-48.95l257.29-57.89,423.26-83.71c37.48-4.62,78.48,15.02,113.98,21.9l-264.36,37.57c-236.15,33.56-462.28,71.53-683.45,131.09h.01Z"/>
      <path class="st2" d="M4753.39,3799.01l-362.97,8.62-85.36,1.61.03-11.21,65.97-7.41,354.36-6.14,332.98-8.89,287.1-3.89c-.38,8.76-7.97,15.41-14.78,15.59l-206.79,5.61-370.56,6.1h.01Z"/>
      <path class="st2" d="M7059.24,3494.95c-1.46,20.97,5.99,43.53-13.31,50.7l-7.07-192.65c-21.86-78.92-64.69-152.79-65.19-238.31-.04-6.84,17.02-18.84,20.15-22.28,28.48,31.3,7.6,100.8,29.75,160.47,29.04,78.2,41.91,152.26,35.66,242.08h0Z"/>
      <path class="st2" d="M1133.87,3754.19c-4.35-58.03,14.59-108.61,50-152.04,13.46,58.53-6.38,114.27-50,152.04Z"/>
      <path class="st2" d="M1581.22,4304.6c-11.28-4.3-15.82-11.52-15.33-19.91.49-8.41,4.26-15.47,15.33-20.07v39.98Z"/>
      <path class="st2" d="M4155.77,3342.99l-250.74-2.12c17.26-18.93,39.57-12.83,63.53-14.58l172.69-12.62c6.28-.46,16.44-2.39,19.21,3.96,1.55,3.55,1.69,8.84-4.7,25.36h.01Z"/>
      <path class="st2" d="M6073.79,3647.89c-231.4-122.44-548.86-56.33-681.32,194.33-39.33,74.43-64.93,149.96-72.38,233.61-1,11.24-22.5,9.72-21.65,3.24,9.27-70.53,24.01-132.97,50.31-194.27,103.24-240.68,349.11-352.13,601.76-302.8,58.44,11.41,112.24,30.38,163.14,67.86-11.78,11.02-26.25,5.23-39.85-1.97h0Z"/>
      <path class="st2" d="M5902.22,4032.87c-11.96-7.85-30.72-9.04-42.33-.53-13.35,9.78-7.68,29.08,1.92,43.62-17.42-3.08-37.89-5.31-56.66-1.97,13.66-20.29,11.78-34.23,2.72-40.84-12.74-9.29-25.43-7.98-45.41-3.17,35.86-40.3,105.96-37.56,139.77,2.9h0Z"/>
      <path class="st2" d="M5725.91,4165.52c11.23,7.53,27.86,12.11,38.94,8.32,14.35-4.91,17.31-23.16,21.69-43.75,7.54,17.93,18.7,32.67,33.12,34.28,23.64,2.65,40.58-7.02,54.45-22.92,9.01,20.19,16.69,27.47,24.28,30.27,10.62,3.91,23.01-.31,35.51-7.22-13.63,42.03-51.17,64.14-95.69,67.58l21.43-20.81c10.32-10.02,3.06-27.1-7.94-33.88-11.5-7.09-21.74-9.04-37.53.67-10.87,6.69-14.61,16.39-11.65,27.13,2.14,7.77,10.33,15.13,20.97,26.05-43.46-1.91-78.53-28.4-97.58-65.72h0Z"/>
      <path class="st2" d="M5805.15,4073.99l-24.22,49.26c-13.66-12.44-29.71-15.23-41.57-8.37-17.49,10.13-17.9,30.36-13.43,50.63-21.48-42.09-9.48-89.24,25.24-127.16-2.43,20.18-.18,31.96,17.98,42.28,11.23,6.38,22.21-4.21,36-6.66h0Z"/>
      <path class="st2" d="M5923.96,4040.87c15.27,32.38,28.12,63.53,20.02,99.55-9.86-15.79-17.97-29.88-31.08-31.38-11.83-1.36-22.78,7.88-33.44,17.21,1.72-24.08-7.4-34.74-17.66-50.28,20.13,7.37,42.23,6.29,52.4-17.21,3.97-9.15-3.88-20.56-11.99-25.88,5.29-.38,17.31-1.39,21.74,7.99h.01Z"/>
      <path class="st2" d="M5817.15,4087.42c17.72-8.8,37.72-5.06,46.78,15.09,6.81,15.16,4.58,31.75-15.34,42.71-18.29,10.06-31.56,8.61-44.88-8.37-12.65-16.13-6.17-39.69,13.44-49.43h0Z"/>
      <path class="st2" d="M5777.53,4040.31c7.83-1.98,15.13-.19,19.29,4.03,7.72,7.84,3.35,16.06-7.73,19.26-7.66,2.21-10.59,4.56-17.9-1.2-9.91-7.81-6.65-18.8,6.34-22.09h0Z"/>
      <path class="st2" d="M5882.58,4066.8c-8.6-1.11-16.62-9.73-15.89-16.72.75-7.16,13.37-11,20.95-8.98,4.11,1.1,10.04.96,12.41,9.53,1.8,6.51-2.53,18.1-17.47,16.17h0Z"/>
      <path class="st2" d="M6558.64,3744.59l-273.26,4.68c-.03-8.38,8.28-16.07,14.49-16.2l176.01-3.84,354.44-7.61,307.67-3.86-.07,13.26-326.01,6.19-253.26,7.39h0Z"/>
      <path class="st2" d="M6202.46,3720.22c7.3,4.79,12.45,13.17,19.27,21.44,66.85,81,112.72,177.76,130.41,284.11-34.15-26.51-32.11-69.07-45.15-103-39.73-103.32-97.76-192.25-196.84-255.09,9.18-10.39,23.2-9.89,35.3,1.03l57.02,51.51h0Z"/>
      <path class="st2" d="M6206.4,3702.11c-9.73-3.45-18.45-8.62-31.68-19.36,5.1-5.83,19.47-6.72,27.75-3.89,6.02,2.06,3.09,17.53,3.93,23.24h0Z"/>
      <path class="st2" d="M5965.68,3833.67c-85.79-21.16-166.99-39.15-247.23-.27-4.04-.91-10.48-5.8-12.17-12.71,82.61-32.35,181.82-42.38,259.4,12.99h0Z"/>
      <path class="st2" d="M5648.09,3864.53c-64.03,57.56-102.63,127.34-128.18,214.23,2.05-81.65,45.04-173.17,128.18-214.23Z"/>
      <path class="st2" d="M2619.42,4107.7c-20.29-267-160.43-505.71-426.79-549.28-190.82-31.21-375.95,37.29-490.87,193.1-7.35,9.97-26.35,1.45-23.05-3.42,96.26-142.1,257.4-218.74,427.25-217.21,320.69,2.9,499.36,254.07,532.07,561.91.67,6.32.25,14.11-.89,18.6-1.13,4.48-16.84,7.89-17.72-3.71h0Z"/>
      <path class="st2" d="M933.58,3797.74c-12.28,1.06-16.6-5.94-12.51-10.4l134.31-166.35c12.23-15.15,27.46-28.59,43.54-17.45-54.66,44.39-84.35,98.52-121.82,151.57l-43.51,42.62h0Z"/>
      <path class="st2" d="M1237.28,3418.99c18.35-28.74,47.1-26.95,78.1-33.12l145.13-28.86,4.63,5.07-70.67,19.53c-53.1,14.68-100.27,35.49-157.19,37.37h0Z"/>
      <path class="st2" d="M1093.31,3644.35c1.9,40.38-5.93,73.62-31.07,109.21-9.6-36.47-1.06-76.63,31.07-109.21Z"/>
      <path class="st2" d="M1297.45,3595.78c13.99,49.02-9.42,68.81-25.89,93.58-5.92-40-.23-77.84,25.89-93.58Z"/>
      <path class="st2" d="M2845.03,3264.86c-12.87,2.43-19.92-3.36-15.36-14.6l160.93-8.74.22,12.1-145.79,11.24h0Z"/>
      <path class="st2" d="M2740.85,3842.57l-79.25,2.22c-16.87.47-34.47,8.89-45.66-14.4l139.93-3.12c-1.13,7.25-8.4,15.12-15.01,15.3Z"/>
      <path class="st2" d="M1568.66,3637.2l21.41-65.59c-14.92-5.3-.17-18.99,6.23-8.59,6.34,24.68-6.68,61.6-27.63,74.18h-.01Z"/>
      <path class="st2" d="M1975.9,4402.15c144.55,59.27,240.03,3.73,248.13,7.21,33.89,14.57-162.17,78.19-248.13-7.21Z"/>
      <path class="st2" d="M1916.64,4368.4c-81.32-46.1-118.73-133.99-125.05-221.02,18.02,9.47,17.79,29.99,20.47,43.93,13.9,72.41,56.2,124.32,104.58,177.09h0Z"/>
      <path class="st2" d="M1797.45,4077.84c2.33-83.5,49.47-174.98,132.89-217.71-65.85,61.17-105.09,125.5-132.89,217.71Z"/>
      <path class="st2" d="M2060.15,4124.61c11.42,11.78,19.25,31.32,33.04,36.03,19.94,6.81,39.42-.53,49.47-13.2,16.39-20.66,17.14-38.97-.48-63.16,21.49,3.08,33.08-3.12,40.54-12.22,11.21-13.68,7.96-31.52-9.19-42.13-9.43-5.83-26.37-8.55-37.38,3.75-10.5,11.72-9.92,27.44,4.34,44.98-25.06-3.93-35.55-4.97-57.89-1.41,11.56-14.29,13.25-27.37,5.31-40.92-4.89-8.35-20.27-18.22-37.5-16.71l44.6-18.4c28.7-11.84,75.5,10.39,96.29,35.64,31.55,38.3,44.19,80.96,24.32,128.32-13.15,31.34-45.7,62.73-87.11,65.26,20.13-21.21,15.4-43.53,4.39-52.21-19.27-15.19-42.45-4.78-49.77,7.05-9.87,15.93-.59,38.32,15.69,46.33-38.17-2.89-65.6-22.47-86.47-54.65,24-.94,33.86-3.46,41.25-11.19,10.62-11.11,7.4-30.32,6.54-41.15h0ZM2176.44,4112.58c-18.7,5.89-23.98,26.99-15.55,45.87,4.46,6.79,18.31,22.61,41.05,10.75,4.08-1.33,15.57-23.65,12.51-38.18-2.34-11.11-17.3-24.96-38.01-18.43h0Z"/>
      <path class="st2" d="M2215.55,3830.23c-77.79-32.98-149.34-15.82-229.48-4.87,78.3-46.5,166.68-34.29,245.77-5.27,8.34,1.36,7.63,7.81-.05,11.31-3.46,1.58-11.48.85-16.24-1.17h0Z"/>
      <path class="st2" d="M1585.62,4087.32c-.74,7.63-2.71,28.27-10.35,30.32-14.27-4.57-12.99-27.29-2.18-34.93,4.36-107.36,28.02-211.92,85.09-304.33,4.03-6.67,8.9-10.68,13.95-12.01,4.47-1.18,12.74,6.5,9.55,11.53-59.7,94.03-85.51,200.56-96.06,309.41h0Z"/>
      <path class="st2" d="M1577.81,4252.47c-18.38-37.64-17.89-87.37-1.11-131.73,9.4,43.46,7.83,84.4,1.11,131.73Z"/>
      <path class="st2" d="M2293.07,4375.44c69.7-64.2,105.99-132.05,126.89-226,6.16,93.59-45.63,179.39-126.89,226Z"/>
      <path class="st2" d="M2297.16,3866.73c71.68,24.66,128.34,154.7,130.07,205.69.19,5.67-12.87,14.26-14.83,8.78-4.76-90.97-55.87-152.49-115.23-214.47Z"/>
      <path class="st2" d="M2100.27,4189.21c8.45-6.58,20.22-2.47,25.14,3.86,3.47,4.47,2.87,14.88-3.85,20.43-4.4,3.63-13.01,5.86-21.98.81-6.2-3.48-9.41-17.23.69-25.1Z"/>
      <path class="st2" d="M2152.98,4040.41c8.69-4.76,18.15,1.48,19.77,5.71,3.26,8.52-.09,16.42-4.94,20.04-6.44,4.79-13.71,3.01-17.23.1-6.93-5.72-11.14-18.42,2.41-25.85h-.01Z"/>
      <path class="st2" d="M5503.2,3297.11c-44.65,51-121.21,50.9-170.44,4.28l170.44-4.28Z"/>
      <path class="st2" d="M5574.45,3249.99c13.73,2.36,13.12,12.11,12.22,16.74-2.03,10.51-7.8,14.41-22.26,15.03-9.17.39-21.26.93-24.11-5.77-2.18-5.13-2.85-19.19.33-23.72,4.17-5.92,21.56-4.39,33.81-2.28h.01Z"/>
      <path class="st2" d="M4132.56,3359.1c-42.4,52.64-124.67,51.69-168.9.64l168.9-.64Z"/>
      <path class="st2" d="M6347.09,4025.22c27.18,42.24,34.39,134.38,8.36,128.53l-8.36-128.53Z"/>
      <path class="st2" d="M6363.27,4166.62c9.91-4.06,13.77,5.72,14.75,10.34,1.12,5.29,1.92,16.12-3.35,17.9-10.07,3.4-16.04-1.19-17.72-5.47-2.11-5.39-3.81-18.62,6.32-22.76h0Z"/>
      <path class="st2" d="M6014.57,4373.15c65.82-54.03,110.93-125.28,123.95-219.24,9.87,17.82,6.48,35.73,3.39,54.1-24.18,63.28-50.2,134.93-127.33,165.14h0Z"/>
      <path class="st2" d="M6143.54,4086.31c-18.81-83.03-54.63-149.07-119.55-217.8,71.57,45.66,124.51,126.49,119.55,217.8Z"/>
      <path class="st2" d="M5626.89,4353.23c18.31-2.96,19.37,19.32.36,16.45-62.93-58.62-116.74-135.89-106.6-223.18,16.79,77.16,44.91,150,106.23,206.73h0Z"/>
      <path class="st2" d="M5956.03,4409.4c-74.66,53.32-179.32,44.19-257.7.86,5.74-11.95,12.25-10.23,15.7-8.37l17.46,9.43c68.32,36.91,142.73,16.49,224.53-1.93h.01Z"/>
    </g>
  </g>
  <g id="Dimensions">
    <line class="st0" x1="2112.18" y1="4136.64" x2="2112.18" y2="4868.99"/>
    <line class="st0" x1="5838.33" y1="4134.27" x2="5838.33" y2="4866.63"/>
  </g>
</svg>